<?xml version="1.0" encoding="utf-8"?>
<!-- Generator: Adobe Illustrator 20.1.0, SVG Export Plug-In . SVG Version: 6.00 Build 0)  -->
<svg version="1.1" id="Layer_1" xmlns="http://www.w3.org/2000/svg" xmlns:xlink="http://www.w3.org/1999/xlink" x="0px" y="0px"
	 viewBox="0 0 1200 447" style="enable-background:new 0 0 1200 447;" xml:space="preserve">
<style type="text/css">
	.st0{fill:#6D4F45;}
	.st1{fill:#4C342E;}
	.st2{fill:url(#SVGID_1_);}
	.st3{fill:#3A2821;}
	.st4{fill:#7C5C40;}
	.st5{fill:url(#SVGID_2_);}
	.st6{fill:#E5C8B5;}
	.st7{fill:#B7927D;}
	.st8{fill:#443026;}
	.st9{fill:#30221C;}
	.st10{fill:#FFE6D5;}
	.st11{fill:#C9B2A3;}
	.st12{fill:#3F2314;}
	.st13{fill:url(#SVGID_3_);}
	.st14{fill:url(#SVGID_4_);}
	.st15{fill:url(#SVGID_5_);}
	.st16{fill:#3A2412;}
	.st17{fill:url(#SVGID_6_);}
	.st18{fill:#D38D5F;}
	.st19{fill:url(#SVGID_7_);}
	.st20{display:none;}
	.st21{display:inline;}
	.st22{clip-path:url(#SVGID_8_);fill:#965514;}
	.st23{fill:url(#SVGID_9_);}
	.st24{fill:url(#SVGID_10_);}
	.st25{clip-path:url(#SVGID_11_);fill:#965514;}
	.st26{opacity:0.2;clip-path:url(#SVGID_12_);}
	.st27{fill:#303030;}
</style>
<g>
	<g id="Lori_with_nothing">
		<g id="Lori_3_">
			<g id="Top_Head_4_">
				<path class="st0" d="M63.5,208.5l0.1-0.7c0-0.2,2.6-24.2,9.2-52.7c3.9-16.7,8.3-31.7,13.3-44.5c6.2-16.1,13.1-28.7,20.7-37.7
					c14.3-17,35.7-29,63.6-35.5c22.7-5.3,45.1-5.9,59.9-5.9s37.2,0.6,60,5.9c28,6.5,49.4,18.5,63.7,35.5c7.5,9,14.5,21.7,20.7,37.8
					c4.9,12.8,9.4,27.8,13.3,44.5c6.6,28.5,9.2,52.4,9.2,52.6l0.1,0.7L63.5,208.5L63.5,208.5z"/>
				<path class="st1" d="M230.3,32.2c28.2,0,90.3,2.1,123.2,41.3c32.9,39.2,43.1,134.7,43.1,134.7H230.3H64.3
					c0,0,10.1-95.5,43-134.7C140.1,34.3,202.2,32.2,230.3,32.2 M230.3,30.9c-14.9,0-37.3,0.6-60.1,5.9c-28.1,6.6-49.6,18.6-64,35.7
					c-7.6,9.1-14.6,21.8-20.8,37.9c-5,12.8-9.4,27.8-13.3,44.6c-6.6,28.5-9.2,52.5-9.2,52.7l-0.1,1.4h1.4h166.1h166.3h1.4l-0.2-1.4
					c0-0.2-2.6-24.2-9.3-52.7c-3.9-16.8-8.4-31.7-13.3-44.6C369,94.4,362,81.6,354.4,72.6c-14.4-17.2-35.9-29.2-64-35.7
					C267.6,31.5,245.2,30.9,230.3,30.9L230.3,30.9z"/>
			</g>
			<g id="Left_Ear_3_">
				<g>
					
						<linearGradient id="SVGID_1_" gradientUnits="userSpaceOnUse" x1="44.7841" y1="159.0707" x2="70.9626" y2="146.2155" gradientTransform="matrix(1 0 0 -1 0 296)">
						<stop  offset="0" style="stop-color:#594031"/>
						<stop  offset="1" style="stop-color:#35261F"/>
					</linearGradient>
					<path class="st2" d="M63.7,208.2c-0.1-0.2-10.4-17.8-19.4-38.2c-5.3-12-9.1-22.5-11.3-31.4c-2.8-11.2-3-19.7-0.7-25.3
						c3.7-9,15.1-13.6,33.8-13.6c19.8,0,41.1,5.3,41.3,5.3l0.7,0.2l-0.3,0.7c-0.3,0.7-34.3,71.1-43,102.2l-0.4,1.4L63.7,208.2z"/>
					<path class="st3" d="M66.1,100.3c20,0,41.2,5.3,41.2,5.3s-34.2,70.7-43,102.3c0,0-41.3-70.3-31.4-94.4
						C37.1,103.2,51.3,100.3,66.1,100.3 M66,99v1.2V99c-18.9,0-30.5,4.7-34.3,14c-2.4,5.7-2.1,14.4,0.7,25.7
						c2.2,8.9,6,19.5,11.3,31.5c9,20.4,19.4,38.1,19.5,38.3l1.5,2.5l0.8-2.8c8.7-31.1,42.6-101.4,43-102.1l0.6-1.4l-1.5-0.4
						C107.3,104.3,86,99,66,99L66,99z"/>
				</g>
				<path class="st4" d="M59.5,189.3c0,0-22.2-37.3-15.3-52.1s38.2-9.4,38.2-9.4C69.9,144.5,65.6,169.9,59.5,189.3z"/>
			</g>
			<g id="Right_Ear_3_">
				<g>
					
						<linearGradient id="SVGID_2_" gradientUnits="userSpaceOnUse" x1="352.3835" y1="141.4667" x2="429.8029" y2="141.4667" gradientTransform="matrix(1 0 0 -1 0 296)">
						<stop  offset="0" style="stop-color:#35261F"/>
						<stop  offset="1" style="stop-color:#594031"/>
					</linearGradient>
					<path class="st5" d="M395.7,208c-8.8-31.1-42.7-101.5-43-102.2l-0.3-0.7l0.7-0.2c0.2-0.1,21.5-5.3,41.3-5.3
						c18.7,0,30.1,4.6,33.8,13.6c2.3,5.6,2.1,14.1-0.7,25.3c-2.2,8.9-6,19.4-11.3,31.4c-9,20.4-19.3,38.1-19.4,38.2l-0.7,1.3
						L395.7,208z"/>
					<g>
						<path class="st3" d="M394.4,100.3c14.8,0,29,2.9,33.2,13.2c9.9,24.1-31.4,94.4-31.4,94.4c-8.9-31.5-43.1-102.3-43.1-102.3
							S374.5,100.3,394.4,100.3 M394.4,99c-19.9,0-41.3,5.3-41.5,5.4l-1.5,0.4l0.6,1.4c0.3,0.7,34.2,71,43,102.1l0.8,2.8l1.5-2.5
							c0.1-0.2,10.4-17.9,19.5-38.3c5.3-12,9.1-22.6,11.3-31.5c2.8-11.3,3-19.9,0.6-25.7C425,103.7,413.4,99,394.4,99L394.4,99z"/>
					</g>
				</g>
				<path class="st4" d="M401.1,189.3c0,0,22.2-37.3,15.3-52.1c-6.9-14.8-38.2-9.4-38.2-9.4C390.6,144.5,394.9,169.9,401.1,189.3z"
					/>
			</g>
			<g id="Head_8_">
				<path class="st6" d="M230.3,408.9c-28,0-46-0.8-60.4-2.8c-16.8-2.3-29.3-6.3-39.4-12.5c-10.1-6.3-30.3-23.9-48.1-44.4
					c-9.6-11.1-17.2-21.5-22.7-31c-6.3-11-9.6-20.3-9.6-27.8c0-8.2,0.5-38,6.9-74.3c6.4-36.2,16.4-66.3,29.7-89.5
					c10.5-18.3,21.8-32.3,33.6-41.6c9-7.2,18.1-11.3,25-11.3c3.4,0,6,1,7.2,2.8c2.1,3.1-2.2,17.8-6.7,33.4
					c-7.1,24.1-15,51.4-6.3,56.5c2.8,1.7,8,2.4,15.9,2.4c26,0,72.1-9.3,74.9-9.8c2.7,0.5,48.9,9.8,74.9,9.8c7.7,0,13-0.8,15.9-2.4
					c8.8-5,0.8-30-6.2-52.1c-4.6-14.4-8.9-28-6.8-31.1c1.7-2.5,5.6-4,10.4-4c7.3,0,16,3.4,24.4,9.7c11,8.2,21.4,20.9,31.1,37.7
					c13.3,23.2,23.3,53.2,29.7,89.5c6.4,36.3,6.9,66.1,6.9,74.3c0,7.5-3.2,16.9-9.6,27.8c-5.5,9.5-13.1,19.9-22.7,31
					c-17.7,20.5-38,38.2-48.1,44.4c-10.1,6.3-22.6,10.2-39.4,12.5C276.2,408.1,258.7,408.9,230.3,408.9L230.3,408.9z"/>
				<path class="st7" d="M145.4,73l0,1.2c3.2,0,5.6,0.9,6.8,2.6c0.2,0.3,0.6,1.2,0.4,3.7c-0.1,1.9-0.5,4.4-1.3,7.5
					c-1.4,6-3.6,13.6-5.9,21.7c-3.3,11.5-7.2,24.5-9,35c-2.2,12.7-1.3,19.7,3,22.2c2.9,1.7,8.2,2.5,16.2,2.5
					c25.7,0,71.1-9.1,74.9-9.8c3.8,0.7,49.1,9.8,74.9,9.8c7.9,0,13.2-0.8,16.2-2.5c4.3-2.5,5.2-9.1,3-20.7c-1.8-9.6-5.6-21.6-9-32.1
					c-2.4-7.5-4.6-14.5-6-20.1c-1.8-7.2-1.5-9.7-0.9-10.5c1.2-1.8,4.4-3.7,9.9-3.7c7.2,0,15.7,3.4,24,9.6
					c10.9,8.1,21.3,20.8,30.9,37.5c7.1,12.3,13.3,26.8,18.5,43.2c4.5,14.1,8.2,29.6,11.2,46.1c6.4,36.2,6.9,66,6.9,74.2
					c0,7.4-3.2,16.7-9.5,27.5c-5.5,9.5-13.1,19.9-22.6,30.9c-8.2,9.4-17.4,18.9-26.6,27.3c-8.2,7.5-16,13.7-21.3,17
					c-10,6.2-22.4,10.1-39.2,12.4c-14.5,2-32,2.8-60.4,2.8c-27.9,0-46-0.8-60.3-2.8c-16.7-2.3-29.2-6.2-39.2-12.4
					c-5.3-3.3-13-9.5-21.3-17c-9.3-8.4-18.5-17.9-26.6-27.3c-9.6-11.1-17.2-21.4-22.6-30.9c-6.3-10.9-9.5-20.1-9.5-27.5
					c0-8.2,0.5-38,6.9-74.2c2.9-16.5,6.7-32,11.2-46.1c5.2-16.4,11.4-30.9,18.5-43.2c5.5-9.5,11.3-18,17.2-25.3
					c5.3-6.4,10.7-11.9,16.2-16.2c8.9-7.1,17.9-11.1,24.6-11.1L145.4,73 M145.5,73c-12.3,0-35.8,12.6-59.1,53.2
					c-30.5,53-36.7,131.4-36.7,164.1s59.5,90.7,80.6,103.8c21.1,13.1,51.3,15.4,100.1,15.4c48.9,0,79.2-2.3,100.2-15.3
					c21.1-13.1,80.6-71.1,80.6-103.8s-6.3-111.1-36.7-164.1c-21.5-37.3-43.1-47.7-56-47.7c-5.4,0-9.3,1.8-10.9,4.3
					c-5.5,8.2,27.3,74.9,13.2,83c-2.9,1.7-8.5,2.4-15.5,2.4c-26.9,0-74.9-9.8-74.9-9.8s-48,9.8-74.9,9.8c-7,0-12.6-0.7-15.5-2.4
					c-14.1-8.1,18.8-81.5,13.2-89.7C151.9,74.2,149.2,73,145.5,73L145.5,73z"/>
			</g>
			<g id="Cheeks_4_">
				<path class="st8" d="M186.6,395.1c-0.1,0-0.2,0.1-0.3,0c-0.1-0.1-9.6-6.3-26.7-6.3l-0.4,0c-11,0-29.6-16.3-43.4-31.5
					c-17.1-18.9-30-39.2-32.9-51.7c-2.3-9.6-1.9-19.9,1-31.4c3-11.6,8.7-24.5,17.3-39.6c9.3-16.1,11.9-24,13.9-30.3
					c1.8-5.4,3.3-10.1,8.4-17.9c6-9.3,11.2-16,15.7-20.7c5.3-5.4,9.9-8,14-8c1.3,0,4.4,1.1,16,11c6.8,5.8,15.5,13.9,26.2,24
					c16.5,15.7,32.2,31.6,35,34.4c2.8-2.8,18.6-18.7,35-34.4c10.6-10.1,19.4-18.2,26.1-24c11.5-9.9,14.6-11,15.9-11
					c7.6,0,16.8,8.9,29.7,28.7c5.1,7.9,6.6,12.5,8.4,17.9c2.1,6.3,4.6,14.2,13.9,30.3c8.7,15,14.4,28,17.3,39.6
					c3,11.5,3.3,21.8,1,31.5c-2.9,12.5-15.9,32.7-32.9,51.6c-13.8,15.2-32.4,31.5-43.4,31.5H301c-17.1,0-26.6,6.1-26.7,6.2
					c-0.1,0.1-0.2,0-0.3,0L186.6,395.1L186.6,395.1z"/>
				<g>
					<path class="st9" d="M307.4,158.4c8.3,0,18.2,11.5,29.1,28.5c11,16.9,5,18.3,22.3,48.2s22.7,51.9,18.3,70.7
						c-6.3,26.8-55.9,82.6-75.7,82.6c0,0,0,0-0.1,0c-0.1,0-0.2,0-0.4,0c-17.5,0-27.1,6.4-27.1,6.4h-43.6h-43.8c0,0-9.5-6.4-27.1-6.4
						c-0.1,0-0.2,0-0.4,0c0,0,0,0-0.1,0c-19.8,0-69.5-56-75.7-82.8c-4.4-18.8,1.1-40.7,18.3-70.5c17.3-29.9,11.3-31.3,22.3-48.2
						c11-16.9,20.9-28.5,29.2-28.5s77.2,69.6,77.2,69.6S299.2,158.4,307.4,158.4 M307.4,157.1c-1.5,0-4.8,1.3-16.3,11.2
						c-6.8,5.8-15.5,13.9-26.2,24c-15.7,15-30.9,30.2-34.6,34c-3.7-3.8-18.9-18.9-34.6-34c-10.6-10.1-19.4-18.2-26.2-24
						c-11.6-9.9-14.8-11.2-16.3-11.2c-4.3,0-9,2.7-14.5,8.2c-4.6,4.7-9.7,11.5-15.8,20.8c-5.1,7.9-6.7,12.6-8.4,18.1
						c-2.1,6.3-4.6,14.2-13.9,30.2c-8.7,15.1-14.4,28.1-17.4,39.7c-3,11.6-3.3,21.9-1,31.7c1.5,6.5,5.6,15,11.8,24.6
						c5.8,9,13.1,18.4,21.2,27.3c8.2,9.1,16.4,16.7,23.8,22.2c8.3,6.3,15.1,9.3,20.1,9.3h0.1c0.1,0,0.2,0.1,0.3,0.1
						c17,0,26.3,6.3,26.4,6.3c0.2,0.1,0.4,0.3,0.7,0.3h43.7H274c0.2,0,0.5-0.1,0.7-0.3c0,0,2.4-1.6,6.8-3.1
						c4.1-1.4,10.8-3.2,19.6-3.2c0.1,0,0.2-0.1,0.3-0.1h0.1c5,0,11.8-3,20.1-9.3c7.4-5.5,15.6-13.2,23.8-22.2
						c8-8.9,15.4-18.3,21.2-27.3c6.2-9.6,10.3-18.1,11.8-24.6c2.3-9.7,1.9-20.1-1-31.8c-3-11.7-8.7-24.7-17.4-39.8
						c-9.3-16-11.8-23.9-13.9-30.2c-1.8-5.4-3.3-10.1-8.4-18.1C324.6,166.1,315.3,157.1,307.4,157.1L307.4,157.1z"/>
				</g>
			</g>
			<g id="Front_4_">
				<path class="st10" d="M230.3,425.3c-27.3,0-39-16.2-48.5-29.2c-3.5-4.9-6.9-9.4-10.5-12.4l-0.1-0.1l-0.1-0.1
					c-3.3-5.4-9-9.6-14.4-13.5c-6.8-5-13.2-9.7-13.2-16.1c0-6.9,4.9-13.6,7.8-17c4.3-5,9.5-9.1,13.4-10.4c4.6-1.6,7-1.9,10.1-2.4
					c1.9-0.3,4-0.6,7-1.3c13.8-7.5,25.7-19.9,28.9-30.1c1.4-4.6,1.9-14.6,1.3-26.9c-0.6-12.5-2.4-24.9-4.6-33.2v0v0
					c-4.4-28.7-24.4-49.9-34.1-60c-4-4.2-5.7-6-5.9-7.3c-0.3-2.2,4-8,11.6-18c6.7-8.9,14.3-18.9,17.3-25.7c1.2-2.8,2.5-6.5,3.9-10.9
					c2.7-8.1,6-18.2,10.7-26.1c5.5-9.5,11.9-14,19.2-14c16.1,0,22.7,22.3,27.5,38.6c1.5,5,2.8,9.4,4.1,12.5c3,7,11.6,17.3,19.1,26.4
					c7.9,9.6,12.4,15.1,12.1,17.3c-0.2,1.2-1.9,3.1-5.9,7.3c-9.6,10.2-29.7,31.3-34.1,60v0v0c-2.2,8.2-3.9,20.6-4.6,33.2
					c-0.6,12.3-0.2,22.4,1.3,26.9c3.2,10.2,15.1,22.6,28.9,30.1c3,0.6,5.1,1,7,1.3c3,0.5,5.5,0.8,10.1,2.4
					c3.9,1.3,9.1,5.4,13.4,10.4c2.9,3.4,7.8,10.2,7.8,17c0,6.5-6.4,11.2-13.2,16.1c-5.4,4-11,8.1-14.4,13.5l-0.1,0.1l-0.1,0.1
					c-3.7,3-7,7.6-10.5,12.4C269.4,409.1,257.6,425.3,230.3,425.3z"/>
				<path class="st11" d="M230.3,71c20.4,0,25.2,37.3,31,50.7c5.8,13.4,31.7,39.1,31.1,43.4s-34,28.7-39.9,67.3
					c-4.8,17.9-6.4,50.7-3.3,60.4c3,9.7,14.2,22.3,29.3,30.5c8.2,1.8,9.8,1.2,17.1,3.7c7.3,2.4,20.8,15.9,20.8,26.9
					c0,11-19.7,16.8-27.5,29.3c-13.5,11-21.4,41.5-58.6,41.5s-45.2-30.6-58.6-41.5c-7.7-12.5-27.5-18.3-27.5-29.3
					c0-11,13.5-24.4,20.8-26.9c7.3-2.4,8.9-1.9,17.1-3.7c15.1-8.2,26.3-20.8,29.3-30.5s1.5-42.5-3.3-60.4
					c-5.9-38.6-39.3-63-39.9-67.3c-0.6-4.3,23-30,28.9-43.4C202.9,108.4,209.9,71,230.3,71 M230.3,69.8c-4.1,0-7.9,1.4-11.4,4.2
					c-3,2.4-5.7,5.7-8.3,10.2c-4.7,8-8,18.1-10.7,26.3c-1.5,4.3-2.7,8.1-3.9,10.8c-2.9,6.7-10.5,16.7-17.2,25.6
					c-3.1,4.2-6.1,8.1-8.2,11.2c-3.1,4.5-3.6,6.2-3.4,7.3c0.2,1.4,1.9,3.2,6,7.6c9.6,10.1,29.5,31.2,33.9,59.7v0.1l0,0.1
					c2.2,8.2,3.9,20.5,4.6,33c0.6,12,0.1,22.3-1.3,26.7c-3.2,10.1-14.9,22.3-28.6,29.7c-3,0.6-5,0.9-6.9,1.3
					c-3.1,0.5-5.5,0.9-10.2,2.4c-4,1.3-9.3,5.5-13.7,10.6c-3,3.5-7.9,10.4-7.9,17.4c0,6.8,6.5,11.5,13.5,16.6c5.4,4,11,8,14.2,13.4
					l0.1,0.2l0.2,0.1c3.6,2.9,6.9,7.5,10.4,12.3c9.5,13.1,21.4,29.5,49,29.5s39.4-16.4,49-29.5c3.5-4.8,6.8-9.4,10.4-12.3l0.2-0.1
					l0.1-0.2c3.3-5.3,8.9-9.4,14.2-13.4c6.9-5.1,13.5-9.8,13.5-16.6c0-7-5-14-7.9-17.4c-4.3-5.1-9.7-9.3-13.7-10.6
					c-4.7-1.6-7.1-1.9-10.2-2.4c-1.8-0.3-3.9-0.6-6.9-1.3c-13.7-7.4-25.4-19.6-28.6-29.7c-1.4-4.4-1.9-14.7-1.3-26.7
					c0.6-12.5,2.3-24.8,4.6-33l0-0.1v-0.1c4.4-28.5,24.3-49.6,33.9-59.7c4.1-4.4,5.8-6.2,6-7.6c0.3-2.3-3.1-6.7-12.2-17.8
					c-7.5-9.1-16-19.3-19-26.2c-1.4-3-2.6-7.4-4.1-12.4C253.6,92.4,246.9,69.8,230.3,69.8L230.3,69.8z"/>
			</g>
			<g id="Nose_3_">
				<path class="st12" d="M252.4,358.1c-10.4-12-18.4-18.3-22.1-18.3c-3.2,0-11.6,6.3-22,18.3c-10.4,12-13.7,19.3-12.2,28.7
					c1.4,9.4,7.3,15.7,11,18.3c3.7,2.6,16.1,4.3,23.2,4.3c7.3,0,19.7-1.6,23.4-4.3c3.7-2.6,9.6-9,11.1-18.3
					C266.2,377.4,262.8,370.1,252.4,358.1z"/>
				
					<linearGradient id="SVGID_3_" gradientUnits="userSpaceOnUse" x1="197.2646" y1="-90.0877" x2="214.5761" y2="-84.2026" gradientTransform="matrix(1 0 0 -1 0 296)">
					<stop  offset="0" style="stop-color:#8C4017"/>
					<stop  offset="9.892017e-02" style="stop-color:#843D17"/>
					<stop  offset="1" style="stop-color:#3F2314"/>
				</linearGradient>
				<path class="st13" d="M223.5,347.1c0,0-8,11-10.6,13.5s-5.9,4.7-8.5,7.9c-2.6,3.2-3.3,10.8-3.3,13.8c0,2.9,0,6.4,0.9,7.6
					c0.9,1.2,4,1.5,4,1.5s6.4-1.1,6.4,2.7c0,2.4-2.1,2.3-3.7,3.3c-1.5,1-2,2.1-2.1,3c-0.1,0.9,3.4,3.3,5.7,4.6
					c2.3,1.2,6.5,2.1,11.3,2.1L223.5,347.1L223.5,347.1z"/>
				
					<linearGradient id="SVGID_4_" gradientUnits="userSpaceOnUse" x1="244.3955" y1="-83.5771" x2="265.8804" y2="-90.6166" gradientTransform="matrix(1 0 0 -1 0 296)">
					<stop  offset="0" style="stop-color:#3F2314"/>
					<stop  offset="0.9011" style="stop-color:#843D17"/>
					<stop  offset="1" style="stop-color:#8C4017"/>
				</linearGradient>
				<path class="st14" d="M237,347.1c0,0,8.1,11,10.7,13.5c2.6,2.4,5.9,4.7,8.6,7.9c2.6,3.2,3.3,10.8,3.3,13.8c0,2.9,0,6.4-0.9,7.6
					c-0.9,1.2-4,1.5-4,1.5s-6.4-1.1-6.4,2.7c0,2.4,2.1,2.3,3.7,3.3c1.5,1,2,2.1,2.1,3c0.2,0.9-3.5,3.3-5.8,4.6
					c-2.3,1.2-6.9,2.1-11.3,2.1L237,347.1L237,347.1z"/>
				
					<radialGradient id="SVGID_5_" cx="493.0238" cy="124.6901" r="14.7264" gradientTransform="matrix(1.1979 0 0 -0.5426 -360.3209 445.931)" gradientUnits="userSpaceOnUse">
					<stop  offset="0" style="stop-color:#FFFFFF;stop-opacity:0.3"/>
					<stop  offset="0.3153" style="stop-color:#DCC5B9;stop-opacity:0.2054"/>
					<stop  offset="1" style="stop-color:#8C4017;stop-opacity:0"/>
				</radialGradient>
				<ellipse class="st15" cx="230.3" cy="378.3" rx="21.7" ry="9.4"/>
			</g>
			<g id="Left_Eye_3_">
				<g>
					<g>
						<path class="st16" d="M204.3,288.1c0,0,9.3-57.9-25.7-70.2S120,232.7,120,232.7s-19.1,36.7,17.1,59S204.3,288.1,204.3,288.1z"
							/>
					</g>
				</g>
				<g>
					
						<radialGradient id="SVGID_6_" cx="160.3715" cy="38.4344" r="39.4984" gradientTransform="matrix(1 0 0 -1 0 296)" gradientUnits="userSpaceOnUse">
						<stop  offset="0" style="stop-color:#F7B42B"/>
						<stop  offset="0.1821" style="stop-color:#F7B12A"/>
						<stop  offset="0.2953" style="stop-color:#F7A927"/>
						<stop  offset="0.3894" style="stop-color:#F79A21"/>
						<stop  offset="0.4236" style="stop-color:#F7931E"/>
						<stop  offset="0.5012" style="stop-color:#EE8D1D"/>
						<stop  offset="0.6303" style="stop-color:#D47D1A"/>
						<stop  offset="0.7941" style="stop-color:#AB6216"/>
						<stop  offset="0.867" style="stop-color:#965514"/>
					</radialGradient>
					<path class="st17" d="M167,296c-9.4,0-18.6-2.6-27.3-8c-7.4-4.6-12.8-10.1-16.1-16.6c-2.6-5.2-3.9-11-3.8-17.2
						c0.2-10.6,4.5-18.8,4.5-18.9v0l0,0c0,0,3.6-4.1,9.8-8c5.7-3.7,14.9-8,26.4-8c5.4,0,10.9,1,16.3,2.9c7.2,2.5,12.8,7.4,16.9,14.5
						c3.2,5.7,5.4,12.7,6.4,21.1c1.8,14.1-0.2,27-0.2,27.2l0,0.1h-0.1C199.7,284.9,186,296,167,296L167,296z"/>
					<path class="st18" d="M160.5,219.4c5,0,10.4,0.8,16.2,2.9c31.1,11,22.8,62.4,22.8,62.4s-13.5,11.3-32.5,11.3
						c-8.2,0-17.5-2.1-27.2-8c-32.2-19.8-15.2-52.5-15.2-52.5S138.5,219.4,160.5,219.4 M160.5,218.8c-5.1,0-10.1,0.8-15.1,2.5
						c-3.9,1.4-7.8,3.2-11.4,5.5c-6.2,4-9.7,7.9-9.8,8.1l0,0.1l0,0.1c-0.2,0.3-4.3,8.4-4.5,19.1c-0.1,6.3,1.1,12.1,3.8,17.4
						c3.3,6.6,8.8,12.2,16.2,16.8c8.8,5.4,18,8.1,27.5,8.1c10,0,18.4-3.1,23.7-5.7c5.7-2.8,9.1-5.6,9.2-5.7l0.2-0.1l0-0.2
						c0-0.1,2.1-13.1,0.2-27.2c-1.1-8.3-3.2-15.4-6.5-21.2c-4.1-7.2-9.8-12.1-17-14.6C171.5,219.8,166,218.8,160.5,218.8
						L160.5,218.8z"/>
				</g>
				<ellipse transform="matrix(0.1797 -0.9837 0.9837 0.1797 -123.6282 369.0397)" cx="159.5" cy="258.6" rx="8.2" ry="8.2"/>
				
					<linearGradient id="SVGID_7_" gradientUnits="userSpaceOnUse" x1="143.0745" y1="54.7073" x2="198.582" y2="45.1925" gradientTransform="matrix(1 0 0 -1 0 296)">
					<stop  offset="0" style="stop-color:#FFFFFF;stop-opacity:0.2"/>
					<stop  offset="0.1202" style="stop-color:#FFFFFF;stop-opacity:0.2601"/>
					<stop  offset="1" style="stop-color:#FFFFFF;stop-opacity:0.7"/>
				</linearGradient>
				<path class="st19" d="M148.6,236.6c0,0,0-0.2,0-0.5c0-0.2,0-0.4,0-0.6c0-0.1,0-0.2,0-0.4c0-0.1,0-0.2,0.1-0.4
					c0.1-0.5,0.2-1.1,0.4-1.7c0.2-0.6,0.5-1.1,0.8-1.5c0.2-0.2,0.4-0.4,0.6-0.5c0.2-0.2,0.5-0.3,0.7-0.4c0.5-0.2,1.1-0.5,1.7-0.7
					c1.2-0.5,2.6-0.9,4.3-1.3c1.6-0.3,3.4-0.6,5.3-0.6c0.9,0,1.9,0,2.9,0.1c1,0.1,2.1,0.2,3.1,0.4c2.1,0.3,4.3,0.9,6.4,1.7
					c2.1,0.7,4.2,1.7,6.3,2.8c1,0.5,2,1.1,3,1.7c0.5,0.3,0.9,0.7,1.3,1.1l0,0l0,0c-0.1-0.1,0.6,0.5,0.3,0.3l0.1,0.1l0.1,0.1l0.1,0.1
					l0.1,0.1l0.1,0.1c0.3,0.3,0.6,0.6,0.8,0.9c1.8,2.2,3.1,4.4,4,6.6c0.5,1.1,0.9,2.1,1.2,3.2c0.3,1,0.6,2,0.8,3
					c0.4,1.9,0.5,3.7,0.6,5.4c0,1.6-0.1,3.1-0.3,4.4c-0.1,0.6-0.2,1.3-0.3,1.8c-0.1,0.5-0.4,1-0.6,1.5c-0.6,0.9-1.5,1.6-2.2,2
					c-0.2,0.1-0.4,0.2-0.5,0.3c-0.1,0-0.1,0.1-0.2,0.1s-0.1,0.1-0.2,0.1c-0.1,0.1-0.2,0.1-0.3,0.1c-0.1,0-0.1,0.1-0.1,0.1l-4.3-0.3
					c0,0,0,0-0.1,0c-0.1,0-0.1-0.1-0.3-0.1c-0.1,0-0.1-0.1-0.2-0.1s-0.1-0.1-0.2-0.1c-0.1-0.1-0.3-0.2-0.5-0.3
					c-0.7-0.4-1.5-1-2.1-1.7c-0.3-0.3-0.5-0.7-0.7-1.1c-0.1-0.4-0.3-0.8-0.5-1.3c-0.3-0.9-0.7-1.9-1.1-3c-0.4-1-0.8-2.1-1.3-3.2
					c-0.5-1-1-2.1-1.6-2.9c-0.6-0.9-1.3-1.6-1.9-2c-0.1-0.1-0.1,0-0.2-0.1l0,0l-0.1,0l-0.1-0.1l-0.1-0.1l-0.1,0
					c-0.3-0.2,0.4,0.3,0.3,0.3l0,0h0c-0.3-0.2-0.6-0.3-0.8-0.6c-0.5-0.5-0.9-1-1.4-1.4c-1-0.9-2.1-1.7-3.2-2.3
					c-1.1-0.7-2.3-1.2-3.5-1.7c-0.6-0.2-1.2-0.4-1.8-0.6s-1.2-0.4-1.8-0.5c-1.2-0.3-2.4-0.6-3.4-0.9c-1.1-0.2-2.2-0.4-3.1-0.6
					c-0.5-0.1-0.9-0.1-1.4-0.2c-0.2,0-0.4,0-0.6-0.1c-0.2-0.1-0.4-0.1-0.6-0.3c-0.4-0.2-0.8-0.6-1.2-1c-0.4-0.4-0.7-0.8-1.1-1.3
					c-0.1-0.1-0.2-0.2-0.2-0.3c-0.1-0.1-0.2-0.2-0.2-0.3c-0.1-0.2-0.3-0.3-0.4-0.5C148.8,236.8,148.6,236.6,148.6,236.6z"/>
				<g class="st20">
					<g class="st21">
						<defs>
							<path id="SVGID_27_" d="M199.6,284.7c0,0,8.3-51.4-22.8-62.4c-31.1-11-52.1,13.1-52.1,13.1s-17,32.6,15.2,52.5
								C172,307.7,199.6,284.7,199.6,284.7z"/>
						</defs>
						<clipPath id="SVGID_8_">
							<use xlink:href="#SVGID_27_"  style="overflow:visible;"/>
						</clipPath>
						<path class="st22" d="M196.2,231.6c4.8,8.2,7.2,16.6,5.6,26.2c-3.4,20.1-22.6,33.5-42.7,30c-20.1-3.4-33.7-22.3-30.3-42.5
							c1.7-9.6,6.7-16.7,14-22.9l-75.3-12.9l-14.9,86.7l146.9,25.2l14.9-86.7L196.2,231.6z"/>
					</g>
				</g>
			</g>
			<g id="Right_Eye_3_">
				<g>
					<g>
						<path class="st16" d="M256.3,288.1c0,0-9.3-57.9,25.7-70.2s58.6,14.8,58.6,14.8s19.1,36.7-17.1,59S256.3,288.1,256.3,288.1z"
							/>
					</g>
				</g>
				<g>
					
						<radialGradient id="SVGID_9_" cx="3341.7363" cy="38.333" r="39.5368" gradientTransform="matrix(-1 0 0 -1 3642 296)" gradientUnits="userSpaceOnUse">
						<stop  offset="0" style="stop-color:#F7B42B"/>
						<stop  offset="0.1821" style="stop-color:#F7B12A"/>
						<stop  offset="0.2953" style="stop-color:#F7A927"/>
						<stop  offset="0.3894" style="stop-color:#F79A21"/>
						<stop  offset="0.4236" style="stop-color:#F7931E"/>
						<stop  offset="0.5012" style="stop-color:#EE8D1D"/>
						<stop  offset="0.6303" style="stop-color:#D47D1A"/>
						<stop  offset="0.7941" style="stop-color:#AB6216"/>
						<stop  offset="0.867" style="stop-color:#965514"/>
					</radialGradient>
					<path class="st23" d="M293.6,296.2c-19,0-32.6-11.2-32.8-11.3l-0.1-0.1l0-0.1c0-0.1-2.1-13-0.2-27.2c1-8.3,3.2-15.4,6.4-21.1
						c4-7.1,9.7-12,16.9-14.5c5.4-1.9,10.9-2.9,16.3-2.9c11.4,0,20.7,4.4,26.4,8c6.2,4,9.7,8,9.8,8l0,0v0c0,0.1,4.3,8.3,4.5,18.9
						c0.1,6.2-1.1,12-3.8,17.2c-3.3,6.5-8.7,12.1-16.1,16.7C312.3,293.5,303,296.2,293.6,296.2z"/>
					<path class="st18" d="M300.1,219.4c22,0,35.9,16,35.9,16s17,32.6-15.2,52.5c-9.7,6-19,8-27.2,8c-19.1,0-32.5-11.3-32.5-11.3
						s-8.3-51.4,22.8-62.4C289.7,220.2,295.1,219.4,300.1,219.4 M299.9,218.8v0.6l0.1-0.6c-5.4,0-10.9,1-16.4,2.9
						c-7.2,2.6-12.9,7.5-17,14.6c-3.2,5.7-5.4,12.8-6.5,21.2c-1.8,14.2,0.2,27.1,0.3,27.2l0,0.2l0.2,0.1c0.1,0.1,3.5,2.9,9.2,5.7
						c5.3,2.6,13.7,5.7,23.7,5.7c9.5,0,18.7-2.7,27.5-8.1c7.4-4.6,12.9-10.2,16.2-16.8c2.6-5.3,3.9-11.1,3.8-17.4
						c-0.2-10.6-4.4-18.7-4.5-19.1l0-0.1l0-0.1c-0.1-0.2-3.6-4.1-9.8-8.1c-3.7-2.3-7.6-4.2-11.6-5.5
						C310.2,219.7,305,218.8,299.9,218.8L299.9,218.8z"/>
				</g>
				<ellipse transform="matrix(0.9837 -0.1797 0.1797 0.9837 -41.5808 58.3379)" cx="301.2" cy="258.7" rx="8.2" ry="8.2"/>
				
					<linearGradient id="SVGID_10_" gradientUnits="userSpaceOnUse" x1="317.5578" y1="54.9004" x2="262.0504" y2="45.3856" gradientTransform="matrix(1 0 0 -1 0 296)">
					<stop  offset="0" style="stop-color:#FFFFFF;stop-opacity:0.2"/>
					<stop  offset="0.1202" style="stop-color:#FFFFFF;stop-opacity:0.2601"/>
					<stop  offset="1" style="stop-color:#FFFFFF;stop-opacity:0.7"/>
				</linearGradient>
				<path class="st24" d="M312.1,236.6c0,0-0.1,0.1-0.3,0.4c-0.1,0.2-0.2,0.3-0.4,0.5c-0.1,0.1-0.1,0.2-0.2,0.3
					c-0.1,0.1-0.1,0.2-0.2,0.3c-0.3,0.4-0.7,0.8-1.1,1.3c-0.4,0.4-0.8,0.7-1.2,1c-0.2,0.1-0.4,0.2-0.6,0.3c-0.2,0.1-0.4,0.1-0.6,0.1
					c-0.4,0.1-0.9,0.1-1.4,0.2c-0.9,0.2-2,0.3-3.1,0.6c-1.1,0.2-2.3,0.5-3.4,0.9c-0.6,0.2-1.2,0.3-1.8,0.5c-0.6,0.2-1.2,0.4-1.8,0.6
					c-1.2,0.5-2.4,1-3.5,1.7c-1.1,0.7-2.2,1.5-3.2,2.3c-0.5,0.4-0.9,0.9-1.4,1.4c-0.2,0.2-0.5,0.4-0.8,0.6h0l0,0
					c-0.1,0.1,0.6-0.5,0.3-0.3l-0.1,0l-0.1,0.1l-0.1,0.1l-0.1,0l0,0c0,0-0.1,0-0.2,0.1c-0.7,0.4-1.4,1.1-1.9,2
					c-0.6,0.9-1.1,1.9-1.6,2.9c-0.5,1-0.9,2.1-1.3,3.2c-0.4,1-0.8,2.1-1.1,3c-0.2,0.5-0.3,0.9-0.5,1.3c-0.2,0.4-0.4,0.8-0.7,1.1
					c-0.6,0.7-1.4,1.3-2.1,1.7c-0.2,0.1-0.3,0.2-0.5,0.3c-0.1,0-0.1,0.1-0.2,0.1c-0.1,0-0.1,0.1-0.2,0.1c-0.1,0.1-0.2,0.1-0.3,0.1
					c-0.1,0-0.1,0-0.1,0l-4.3,0.3c0,0,0,0-0.1-0.1c-0.1,0-0.2-0.1-0.3-0.1c-0.1,0-0.1-0.1-0.2-0.1c-0.1,0-0.1-0.1-0.2-0.1
					c-0.1-0.1-0.3-0.2-0.5-0.3c-0.7-0.4-1.6-1.1-2.2-2c-0.3-0.4-0.5-0.9-0.6-1.5c-0.1-0.5-0.2-1.1-0.3-1.8c-0.2-1.3-0.3-2.7-0.3-4.4
					c0-1.6,0.2-3.4,0.6-5.4c0.2-1,0.5-2,0.8-3c0.3-1,0.7-2.1,1.2-3.2c0.9-2.2,2.2-4.4,4-6.6c0.2-0.2,0.5-0.6,0.8-0.9l0.1-0.1
					l0.1-0.1l0.1-0.1l0.1-0.1l0.1-0.1c-0.3,0.2,0.4-0.3,0.3-0.3l0,0l0,0c0.4-0.4,0.8-0.8,1.3-1.1c1-0.6,2-1.2,3-1.7
					c2-1.1,4.2-2,6.3-2.8c2.1-0.8,4.3-1.3,6.4-1.7c1-0.2,2.1-0.3,3.1-0.4c1-0.1,2-0.1,2.9-0.1c1.9,0.1,3.7,0.3,5.3,0.6
					c1.6,0.3,3,0.8,4.3,1.3c0.6,0.2,1.2,0.5,1.7,0.7c0.3,0.1,0.5,0.2,0.7,0.4c0.2,0.2,0.4,0.3,0.6,0.5c0.4,0.4,0.6,0.9,0.8,1.5
					c0.2,0.6,0.3,1.1,0.4,1.7c0,0.1,0,0.3,0.1,0.4c0,0.1,0,0.3,0,0.4c0,0.2,0,0.4,0,0.6C312.1,236.5,312.1,236.6,312.1,236.6z"/>
				<g class="st20">
					<g class="st21">
						<defs>
							<path id="SVGID_31_" d="M261.1,284.7c0,0-8.3-51.4,22.8-62.4c31.1-11,52.1,13.1,52.1,13.1s17,32.6-15.2,52.5
								C288.6,307.7,261.1,284.7,261.1,284.7z"/>
						</defs>
						<clipPath id="SVGID_11_">
							<use xlink:href="#SVGID_31_"  style="overflow:visible;"/>
						</clipPath>
						<path class="st25" d="M264.4,231.6c-4.8,8.2-7.2,16.6-5.6,26.2c3.4,20.1,22.6,33.5,42.7,30c20.1-3.4,33.7-22.3,30.3-42.5
							c-1.7-9.6-6.7-16.7-14-22.9l75.3-12.9l14.9,86.7l-146.9,25.2l-14.9-86.7L264.4,231.6z"/>
					</g>
				</g>
			</g>
			<g id="Hat_Shadow_3_" class="st20">
				<g class="st21">
					<defs>
						<path id="SVGID_33_" d="M374.5,126.2c-30.5-53-61.3-85.1-66.9-76.9s27.3,108.3,13.2,116.4c-14.1,8.1-90.4-7.5-90.4-7.5
							s-76.2,15.6-90.4,7.5c-14.2-8.1,18.7-108.2,13.2-116.4c-5.5-8.2-36.4,23.8-66.9,76.9S49.6,257.7,49.6,290.3
							s59.5,90.7,80.6,103.8c21.1,13.1,51.3,15.4,100.1,15.4c48.9,0,79.2-2.3,100.2-15.3c21.1-13.1,80.6-71.1,80.6-103.8
							C411.2,257.7,404.9,179.3,374.5,126.2z"/>
					</defs>
					<clipPath id="SVGID_12_">
						<use xlink:href="#SVGID_33_"  style="overflow:visible;"/>
					</clipPath>
					<g class="st26">
						<path d="M90.8,169.4c64.4,29.1,126.4,50,178.8,58.2c12.2-3.3,11.9-8.2,31.6-8.2c19.7,0,29.4,12.2,42.2,10.2
							c67.4-10.2,74.3-18.7,81.6-4.7c0,0,13.9-70,0.8-75.1c-64.2-25-279.9-24.3-353.7-22.9c-9.7,0.2-17.1,45.5-19.7,54.7
							C47.9,197.1,58.7,168.4,90.8,169.4z"/>
					</g>
				</g>
			</g>
		</g>
	</g>
	<g>
		<path class="st27" d="M621.1,335.2c-3-3-4.6-7-4.6-11.9V113.9c1.2-0.5,3.1-1.1,5.7-1.7c2.6-0.6,5.3-0.9,8.2-0.9
			c10.7,0,16.1,4.6,16.1,13.8v188.6h104.7c2.7,2.7,4,6.8,4,12.3c0,4.2-1.1,7.6-3.3,10.1c-2.2,2.5-5.1,3.7-8.8,3.7H632.6
			C627.9,339.7,624.1,338.2,621.1,335.2z"/>
		<path class="st27" d="M927.5,253.6c0,13.9-2,26.5-5.8,37.6c-3.9,11.2-9.4,20.7-16.6,28.7c-7.2,8-15.9,14-26.1,18.3
			c-10.2,4.2-21.7,6.3-34.3,6.3c-12.7,0-24.1-2.1-34.3-6.3c-10.2-4.2-19-10.3-26.3-18.3c-7.3-7.9-12.9-17.5-16.8-28.7
			c-3.9-11.2-5.8-23.7-5.8-37.6c0-13.9,2-26.5,6-37.6c4-11.2,9.7-20.7,17-28.7c7.3-7.9,16.1-14,26.3-18.3
			c10.2-4.2,21.5-6.3,33.9-6.3c12.4,0,23.7,2.1,33.9,6.3c10.2,4.2,18.9,10.3,26.1,18.3c7.2,8,12.8,17.5,16.8,28.7
			C925.4,227.2,927.5,239.7,927.5,253.6z M844.6,187.3c-16.5,0-29.6,5.8-39.1,17.5c-9.5,11.7-14.2,28-14.2,48.8
			c0,21.1,4.7,37.5,14.1,49c9.4,11.6,22.4,17.3,39.2,17.3s29.8-5.8,39.1-17.5c9.2-11.7,13.9-28,13.9-48.8c0-20.9-4.7-37.1-14.1-48.8
			C874.1,193.1,861.2,187.3,844.6,187.3z"/>
		<path class="st27" d="M982.2,339c-1.2,0.5-3,1.1-5.5,1.7c-2.4,0.6-5.1,0.9-8,0.9c-10.5,0-15.7-4.5-15.7-13.4V201.8
			c0-5.7,1-10.2,3.1-13.6c2.1-3.4,5.5-6.6,10.4-9.9c6.3-4.2,14.9-7.9,25.7-11c10.8-3.1,23-4.7,36.7-4.7c19.5,0,29.2,5,29.2,14.9
			c0,2.5-0.4,4.8-1.1,6.9c-0.7,2.1-1.7,3.9-2.9,5.4c-2.4-0.5-5.6-1-9.5-1.5c-3.9-0.5-7.8-0.7-11.7-0.7c-11.2,0-21,1.2-29.6,3.5
			c-8.5,2.4-15.6,5.2-21.2,8.4V339z"/>
		<path class="st27" d="M1070.1,113.1c0-5.2,1.8-9.6,5.3-13.2c3.5-3.6,8.1-5.4,13.7-5.4c5.6,0,10.1,1.8,13.5,5.4
			c3.4,3.6,5.1,8,5.1,13.2s-1.7,9.6-5.1,13.2c-3.4,3.6-7.9,5.4-13.5,5.4c-5.6,0-10.2-1.8-13.7-5.4
			C1071.9,122.8,1070.1,118.3,1070.1,113.1z M1103.7,339c-1.2,0.5-3,1.1-5.5,1.7c-2.4,0.6-5.1,0.9-8,0.9c-10.5,0-15.7-4.5-15.7-13.4
			V168.3c1.2-0.5,3.1-1.1,5.7-1.7c2.6-0.6,5.3-0.9,8.2-0.9c10.2,0,15.3,4.6,15.3,13.8V339z"/>
	</g>
</g>
</svg>
