<?xml version="1.0" encoding="utf-8"?>
<!-- Generator: Adobe Illustrator 20.1.0, SVG Export Plug-In . SVG Version: 6.00 Build 0)  -->
<svg version="1.1" id="Layer_1" xmlns="http://www.w3.org/2000/svg" xmlns:xlink="http://www.w3.org/1999/xlink" x="0px" y="0px"
	 viewBox="0 0 1680 1680" style="enable-background:new 0 0 1680 1680;" xml:space="preserve">
<style type="text/css">
	.st0{fill:#B2E8A6;}
	.st1{fill:#FFFFFF;}
	.st2{fill:#50C144;}
	.st3{fill:#48C144;}
	.st4{fill:#FFDAAE;}
	.st5{fill:#CCCCCC;}
	.st6{fill:#FFBE71;}
	.st7{fill:#FFAC48;}
	.st8{fill:#03053F;}
	.st9{clip-path:url(#SVGID_1_);}
	.st10{fill:#FFB3B6;}
	.st11{fill:#303030;}
	.st12{clip-path:url(#SVGID_2_);}
	.st13{fill:#4E687F;}
	.st14{fill:#B1C8EF;}
	.st15{clip-path:url(#SVGID_3_);}
	.st16{fill:#E98896;}
	.st17{clip-path:url(#SVGID_4_);}
	.st18{fill:#FEE2E3;}
</style>
<g>
	<g>
		<g>
			<path class="st0" d="M593.4,738.1h195.4c28.1,0,50.8-22.7,50.8-50.8V491.9c0-28.1-22.7-50.8-50.8-50.8H593.4
				c-28.1,0-50.8,22.7-50.8,50.8v195.4C542.6,715.4,565.3,738.1,593.4,738.1z"/>
		</g>
		<g>
			<g>
				
					<rect x="657.1" y="588.6" transform="matrix(0.7071 -0.7071 0.7071 0.7071 -212.0811 699.5496)" class="st1" width="162.5" height="34.4"/>
			</g>
			<g>
				
					<rect x="629.5" y="524.5" transform="matrix(0.7071 -0.7071 0.7071 0.7071 -238.9281 634.7033)" class="st1" width="34.4" height="162.5"/>
			</g>
		</g>
	</g>
	<g>
		<g>
			<path class="st2" d="M242.1,738.1h195.4c28.1,0,50.8-22.7,50.8-50.8V491.9c0-28.1-22.7-50.8-50.8-50.8H242.1
				c-28.1,0-50.8,22.7-50.8,50.8v195.4C191.3,715.4,214,738.1,242.1,738.1z"/>
		</g>
		<g>
			<g>
				
					<rect x="305.9" y="588.6" transform="matrix(0.7071 -0.7071 0.7071 0.7071 -314.9784 451.1757)" class="st1" width="162.5" height="34.4"/>
			</g>
			<g>
				
					<rect x="278.3" y="524.5" transform="matrix(0.7071 -0.7071 0.7071 0.7071 -341.8098 386.3112)" class="st1" width="34.4" height="162.5"/>
			</g>
		</g>
	</g>
	<g>
		<g>
			<path class="st3" d="M593.4,385.1h195.4c28.1,0,50.8-22.7,50.8-50.8V138.9c0-28.1-22.7-50.8-50.8-50.8H593.4
				c-28.1,0-50.8,22.7-50.8,50.8v195.4C542.6,362.4,565.3,385.1,593.4,385.1z"/>
		</g>
		<g>
			<g>
				
					<rect x="657.1" y="235.6" transform="matrix(0.7071 -0.7071 0.7071 0.7071 37.5234 596.16)" class="st1" width="162.5" height="34.4"/>
			</g>
			<g>
				
					<rect x="629.5" y="171.5" transform="matrix(0.7071 -0.7071 0.7071 0.7071 10.6667 531.3234)" class="st1" width="34.4" height="162.5"/>
			</g>
		</g>
	</g>
	<g>
		<g>
			<path class="st4" d="M242.1,385.1h195.4c28.1,0,50.8-22.7,50.8-50.8V138.9c0-28.1-22.7-50.8-50.8-50.8H242.1
				c-28.1,0-50.8,22.7-50.8,50.8v195.4C191.3,362.4,214,385.1,242.1,385.1z"/>
		</g>
		<g>
			<g>
				
					<rect x="305.9" y="235.6" transform="matrix(0.7071 -0.7071 0.7071 0.7071 -65.364 347.7764)" class="st1" width="162.5" height="34.4"/>
			</g>
			<g>
				
					<rect x="278.3" y="171.5" transform="matrix(0.7071 -0.7071 0.7071 0.7071 -92.215 282.9314)" class="st1" width="34.4" height="162.5"/>
			</g>
		</g>
	</g>
	<g>
		<path class="st5" d="M611.6,1174.4V644c0-20.6,16.7-37.4,37.4-37.4h291.3c20.6,0,37.4,16.7,37.4,37.4v524.4L611.6,1174.4z"/>
	</g>
	<g>
		<rect x="750.4" y="1293.6" class="st5" width="53.5" height="204.9"/>
	</g>
	<g>
		<rect x="761.5" y="1439.4" class="st5" width="31.4" height="204.9"/>
	</g>
	<g>
		<g>
			<g>
				<path class="st5" d="M969.3,1319.4h-342c-17.9,0-32.4-12.1-32.4-27.1v-24.6c0-15,14.5-27.1,32.4-27.1h342
					c17.9,0,32.4,12.1,32.4,27.1v24.6C1001.7,1307.3,987.2,1319.4,969.3,1319.4z"/>
			</g>
		</g>
	</g>
	<g>
		<path class="st5" d="M969.3,1247.2h-342c-17.9,0-32.4-12.1-32.4-27.1v-24.6c0-15,14.5-27.1,32.4-27.1h342
			c17.9,0,32.4,12.1,32.4,27.1v24.6C1001.7,1235.1,987.2,1247.2,969.3,1247.2z"/>
	</g>
	<g>
		<g>
			<path class="st5" d="M623.6,1648.1c-9.9-15.2-14.9-31.5-14.9-48.4c0-64.4,75.6-116.8,168.5-116.8c92.9,0,168.4,52.4,168.4,116.8
				c0,15.7-4.3,30.8-12.8,45.1L908,1630c5.8-9.7,8.7-19.9,8.7-30.3c0-47.7-63.9-88-139.6-88c-75.7,0-139.6,40.3-139.6,88
				c0,11.3,3.4,22.3,10.2,32.7L623.6,1648.1z"/>
		</g>
	</g>
	<g>
		<circle class="st4" cx="631.4" cy="1645.2" r="34.2"/>
	</g>
	<g>
		<circle class="st4" cx="775.4" cy="1645.2" r="34.2"/>
	</g>
	<g>
		<path class="st6" d="M883.1,551.9c-39.8-57.3-112-87.1-171.8-42.3c-59.7,44.8-7.5,114.5-69.7,154.3
			c-62.2,39.8-151.9,42.3-141.9,139.4c7.5,72.9,82.6,127.3,157.3,112.3c74.7-14.9,206.2-117.3,208.7-239.3
			C868.1,554.4,883.1,551.9,883.1,551.9z"/>
	</g>
	<g>
		<path class="st7" d="M999.1,1142.3H681.4v76.3c0,41.3,33.5,74.7,74.7,74.7h243c41.3,0,74.7-33.5,74.7-74.7v-1.5
			C1073.8,1175.7,1040.4,1142.3,999.1,1142.3z"/>
	</g>
	<g>
		<path class="st8" d="M681.4,1141.3h237.1L948.1,790c2.7-31.5-22.2-58.5-53.8-58.5H705.5c-31.6,0-56.4,27-53.8,58.5L681.4,1141.3z"
			/>
	</g>
	<g>
		<path class="st7" d="M1069.2,1201.2l39.1,435.6h-57.6c0,0-92.1-283.6-101.3-375.7c-9.2-92.1,57.6-76,57.6-76L1069.2,1201.2z"/>
	</g>
	<g>
		<path class="st6" d="M887.4,1201.2l39.1,435.6H869c0,0-92.1-283.6-101.3-375.7c-9.2-92.1,57.6-76,57.6-76L887.4,1201.2z"/>
	</g>
	<g>
		<polygon class="st8" points="942.6,763.8 1027.8,924.9 912.7,915.7 		"/>
	</g>
	<g>
		<path class="st8" d="M665.8,749.4L517.3,963.5c-6.9,14.7-1.6,38.1,13.8,43.2l229.6,51.8l29.9-50.6l-161.1-58.1L745.2,834
			L665.8,749.4z"/>
	</g>
	<g>
		<defs>
			<path id="SVGID_9_" d="M531.1,1006.7l141.5,31.9l8.7,102.7h237.1l18.8-223.6l90.5,7.2L945.9,770c-6.6-22.1-27.1-38.5-51.6-38.5
				H705.5c-21.7,0-40.3,12.8-48.9,31.1L517.3,963.5C510.5,978.2,515.8,1001.6,531.1,1006.7z M629.6,949.7l32.9-32.9l3.9,46.1
				L629.6,949.7z"/>
		</defs>
		<clipPath id="SVGID_1_">
			<use xlink:href="#SVGID_9_"  style="overflow:visible;"/>
		</clipPath>
		<g class="st9">
			<g>
				<g>
					<rect x="517" y="887.7" class="st1" width="56" height="56"/>
				</g>
				<g>
					<rect x="573" y="943.7" class="st1" width="56" height="56"/>
				</g>
				<g>
					<rect x="517" y="999.7" class="st1" width="56" height="56"/>
				</g>
				<g>
					<rect x="573" y="1055.6" class="st1" width="56" height="56"/>
				</g>
				<g>
					<rect x="517" y="1111.6" class="st1" width="56" height="56"/>
				</g>
				<g>
					<rect x="573" y="1167.6" class="st1" width="56" height="56"/>
				</g>
			</g>
			<g>
				<g>
					<rect x="629" y="887.7" class="st1" width="56" height="56"/>
				</g>
				<g>
					<rect x="685" y="943.7" class="st1" width="56" height="56"/>
				</g>
				<g>
					<rect x="629" y="999.7" class="st1" width="56" height="56"/>
				</g>
				<g>
					<rect x="685" y="1055.6" class="st1" width="56" height="56"/>
				</g>
				<g>
					<rect x="629" y="1111.6" class="st1" width="56" height="56"/>
				</g>
				<g>
					<rect x="685" y="1167.6" class="st1" width="56" height="56"/>
				</g>
			</g>
			<g>
				<g>
					<rect x="517" y="551.8" class="st1" width="56" height="56"/>
				</g>
				<g>
					<rect x="573" y="607.8" class="st1" width="56" height="56"/>
				</g>
				<g>
					<rect x="517" y="663.8" class="st1" width="56" height="56"/>
				</g>
				<g>
					<rect x="573" y="719.7" class="st1" width="56" height="56"/>
				</g>
				<g>
					<rect x="517" y="775.7" class="st1" width="56" height="56"/>
				</g>
				<g>
					<rect x="573" y="831.7" class="st1" width="56" height="56"/>
				</g>
			</g>
			<g>
				<g>
					<rect x="629" y="551.8" class="st1" width="56" height="56"/>
				</g>
				<g>
					<rect x="685" y="607.8" class="st1" width="56" height="56"/>
				</g>
				<g>
					<rect x="629" y="663.8" class="st1" width="56" height="56"/>
				</g>
				<g>
					<rect x="685" y="719.7" class="st1" width="56" height="56"/>
				</g>
				<g>
					<rect x="629" y="775.7" class="st1" width="56" height="56"/>
				</g>
				<g>
					<rect x="685" y="831.7" class="st1" width="56" height="56"/>
				</g>
			</g>
			<g>
				<g>
					<rect x="742.2" y="887.7" class="st1" width="56" height="56"/>
				</g>
				<g>
					<rect x="798.2" y="943.7" class="st1" width="56" height="56"/>
				</g>
				<g>
					<rect x="742.2" y="999.7" class="st1" width="56" height="56"/>
				</g>
				<g>
					<rect x="798.2" y="1055.6" class="st1" width="56" height="56"/>
				</g>
				<g>
					<rect x="742.2" y="1111.6" class="st1" width="56" height="56"/>
				</g>
				<g>
					<rect x="798.2" y="1167.6" class="st1" width="56" height="56"/>
				</g>
			</g>
			<g>
				<g>
					<rect x="854.2" y="887.7" class="st1" width="56" height="56"/>
				</g>
				<g>
					<rect x="910.1" y="943.7" class="st1" width="56" height="56"/>
				</g>
				<g>
					<rect x="854.2" y="999.7" class="st1" width="56" height="56"/>
				</g>
				<g>
					<rect x="910.1" y="1055.6" class="st1" width="56" height="56"/>
				</g>
				<g>
					<rect x="854.2" y="1111.6" class="st1" width="56" height="56"/>
				</g>
				<g>
					<rect x="910.1" y="1167.6" class="st1" width="56" height="56"/>
				</g>
			</g>
			<g>
				<g>
					<rect x="742.2" y="551.8" class="st1" width="56" height="56"/>
				</g>
				<g>
					<rect x="798.2" y="607.8" class="st1" width="56" height="56"/>
				</g>
				<g>
					<rect x="742.2" y="663.8" class="st1" width="56" height="56"/>
				</g>
				<g>
					<rect x="798.2" y="719.7" class="st1" width="56" height="56"/>
				</g>
				<g>
					<rect x="742.2" y="775.7" class="st1" width="56" height="56"/>
				</g>
				<g>
					<rect x="798.2" y="831.7" class="st1" width="56" height="56"/>
				</g>
			</g>
			<g>
				<g>
					<rect x="854.2" y="551.8" class="st1" width="56" height="56"/>
				</g>
				<g>
					<rect x="910.1" y="607.8" class="st1" width="56" height="56"/>
				</g>
				<g>
					<rect x="854.2" y="663.8" class="st1" width="56" height="56"/>
				</g>
				<g>
					<rect x="910.1" y="719.7" class="st1" width="56" height="56"/>
				</g>
				<g>
					<rect x="854.2" y="775.7" class="st1" width="56" height="56"/>
				</g>
				<g>
					<rect x="910.1" y="831.7" class="st1" width="56" height="56"/>
				</g>
			</g>
		</g>
	</g>
	<g>
		<path class="st10" d="M764.5,1046.1h94.4l6.9-41.4h-71.2c-13.3,0-24.7,9.7-26.9,22.8L764.5,1046.1z"/>
	</g>
	<g>
		<path class="st11" d="M1107.2,1636.7h-56.4v43.3h114.4c7.6,0,10.1-17,3.5-20.6L1107.2,1636.7z"/>
	</g>
	<g>
		<path class="st11" d="M926.5,1636.7h-56.4v43.3h114.4c7.6,0,10.1-17,3.5-20.6L926.5,1636.7z"/>
	</g>
	<g>
		<defs>
			<path id="SVGID_11_" d="M681.4,1141.3h237.1L948.1,790c2.7-31.5-22.2-58.5-53.8-58.5H705.5c-31.6,0-56.4,27-53.8,58.5
				L681.4,1141.3z"/>
		</defs>
		<clipPath id="SVGID_2_">
			<use xlink:href="#SVGID_11_"  style="overflow:visible;"/>
		</clipPath>
		<g class="st12">
			
				<rect x="722.1" y="907.5" transform="matrix(0.3245 -0.9459 0.9459 0.3245 -441.0042 1349.0154)" class="st13" width="3.8" height="151.7"/>
		</g>
		<g class="st12">
			
				<rect x="696.4" y="960.5" transform="matrix(8.404788e-02 -0.9965 0.9965 8.404788e-02 -399.895 1651.3928)" class="st13" width="3.8" height="165.4"/>
		</g>
	</g>
	<g>
		<polygon class="st14" points="813.9,1046.5 1111.1,1046.5 1151.8,862.5 854.6,862.5 		"/>
	</g>
	<g>
		<rect x="741.2" y="1045.2" class="st14" width="370.1" height="31.4"/>
	</g>
	<g>
		<circle class="st13" cx="988.7" cy="959.5" r="19.6"/>
	</g>
	<g>
		<g>
			<rect x="407.2" y="1075.4" class="st6" width="1077.2" height="25.2"/>
		</g>
		<g>
			<rect x="407.2" y="1079.9" class="st6" width="9.2" height="598.5"/>
		</g>
		<g>
			<rect x="1475.1" y="1079.9" class="st6" width="9.2" height="598.5"/>
		</g>
	</g>
	<g>
		<defs>
			<path id="SVGID_13_" d="M681.4,1141.3h237.1L948.1,790c2.7-31.5-22.2-58.5-53.8-58.5H705.5c-31.6,0-56.4,27-53.8,58.5
				L681.4,1141.3z"/>
		</defs>
		<clipPath id="SVGID_3_">
			<use xlink:href="#SVGID_13_"  style="overflow:visible;"/>
		</clipPath>
		<g class="st15">
			<circle class="st16" cx="800.6" cy="748.9" r="78"/>
		</g>
	</g>
	<g>
		<path class="st16" d="M784.9,753.4h36.8c11.4,0,20.7-10.5,20.7-23.3v-45.4c0-12.9-9.3-23.3-20.7-23.3h-36.8
			c-11.4,0-20.7,10.5-20.7,23.3v45.4C764.2,743,773.5,753.4,784.9,753.4z"/>
	</g>
	<g>
		<path class="st10" d="M891.7,661.3c-14.8,50.1-56.7,42.4-106.7,27.6c-50.1-14.8-64.8-78.2-50.1-128.3
			c14.8-50.1,53.6-67.8,103.6-53C888.6,522.4,906.5,611.2,891.7,661.3z"/>
	</g>
	<g>
		<g>
			<path class="st2" d="M1364.2,901.9c13.9-2.8,51.6-32.1,82.3-113c17.5-46.2,66.9-284.5,0-301.2c-66.9-16.7-54.4,103.2-54.4,213.4
				C1392.1,768.2,1364.2,901.9,1364.2,901.9z"/>
		</g>
		<g>
			<path class="st2" d="M1333.5,913c35.2-2.3,27.9-358.4,30.7-442.1c2.8-83.7,19.5-396-27.9-446.3c-47.4-50.2-96.2-5.6-100.4,59.3
				c-2,30.7,8.4,254.5,13.9,318.7c5.6,64.1,12.5,209.2,18.1,301.2C1273.5,795.9,1291.7,915.8,1333.5,913z"/>
		</g>
		<g>
			<path class="st2" d="M1267.9,917.2c0,0-78.1-154.2-97.6-273.3c-34.9-213.4-41.8-421.2,5.6-418.4c47.4,2.8,50.8,212,53,301.2
				c5.6,231.5,60,376.5,60,376.5L1267.9,917.2z"/>
		</g>
		<g>
			<path class="st4" d="M1274.5,910.9l3.6-1.3c-0.3-0.8-27.8-77.2-46-128.3c-35.7-100.3-41.7-233.8-41.7-235.1l-3.8,0.2
				c0.1,1.3,6,135.3,41.9,236.2C1246.7,833.7,1274.2,910.1,1274.5,910.9z"/>
		</g>
		<g>
			<path class="st4" d="M1321.8,889.3h3.9c0-47.6-8.3-187-8.4-188.4l-3.8,0.2C1313.5,702.6,1321.8,841.8,1321.8,889.3z"/>
		</g>
		<g>
			<path class="st4" d="M1377.8,900.5c0.3-0.7,29.5-72,46.1-136.2c16.6-64.4,12.7-125.5,12.6-126.1l-3.8,0.3
				c0,0.6,4,61.1-12.5,124.9c-16.5,64-45.6,135-45.9,135.7L1377.8,900.5z"/>
		</g>
		<g>
			<circle class="st1" cx="1313.3" cy="703.8" r="10.5"/>
		</g>
		<g>
			<circle class="st1" cx="1434.6" cy="639.7" r="10.5"/>
		</g>
		<g>
			<circle class="st1" cx="1188.5" cy="546.3" r="10.5"/>
		</g>
	</g>
	<g>
		<defs>
			<polygon id="SVGID_15_" points="1407.4,869.8 1245.6,869.8 1273.8,1077.2 1379.2,1077.2 			"/>
		</defs>
		<use xlink:href="#SVGID_15_"  style="overflow:visible;fill:#FF9100;"/>
		<clipPath id="SVGID_4_">
			<use xlink:href="#SVGID_15_"  style="overflow:visible;"/>
		</clipPath>
		<g class="st17">
			<rect x="1145.9" y="887.2" class="st18" width="301.2" height="16.7"/>
		</g>
	</g>
	<g>
		<path class="st6" d="M815.9,497.1c24.9,5,46.1,8.7,63.5,37.3c17.4,28.6,13.7,37.3,8.7,37.3s-120.7,19.9-127,16.2
			c-6.2-3.7-34.9-57.3-8.7-73.4C778.5,498.4,815.9,497.1,815.9,497.1z"/>
	</g>
	<g>
		<path class="st10" d="M734.9,610.4c-6.2-7.5-31.1,3.7-19.9,23.6c11.2,19.9,32.4,10,32.4,10L734.9,610.4z"/>
	</g>
</g>
</svg>
