<?xml version="1.0" encoding="utf-8"?>
<!-- Generator: Adobe Illustrator 20.1.0, SVG Export Plug-In . SVG Version: 6.00 Build 0)  -->
<svg version="1.1" id="Layer_1" xmlns="http://www.w3.org/2000/svg" xmlns:xlink="http://www.w3.org/1999/xlink" x="0px" y="0px"
	 viewBox="0 0 1680 1680" style="enable-background:new 0 0 1680 1680;" xml:space="preserve">
<style type="text/css">
	.st0{fill:#50C144;}
	.st1{fill:#FFDAAE;}
	.st2{fill:#0B3D00;}
	.st3{fill:#FF9100;}
	.st4{fill:#FFBE71;}
	.st5{fill:#E98896;}
	.st6{fill:#FFB3B6;}
	.st7{fill:#7F4D4E;}
	.st8{clip-path:url(#SVGID_1_);}
	.st9{fill:#CCCCCC;}
	.st10{fill:#4C3D31;}
	.st11{clip-path:url(#SVGID_2_);}
	.st12{fill:#FEE2E3;}
	.st13{fill:#303030;}
	.st14{fill:#FFFFFF;}
	.st15{fill:#87D873;}
	.st16{clip-path:url(#SVGID_3_);}
	.st17{fill:#03053F;}
	.st18{fill:#FFCACE;}
	.st19{clip-path:url(#SVGID_4_);}
	.st20{clip-path:url(#SVGID_5_);}
	.st21{clip-path:url(#SVGID_6_);}
	.st22{clip-path:url(#SVGID_7_);}
	.st23{clip-path:url(#SVGID_8_);}
	.st24{clip-path:url(#SVGID_9_);}
</style>
<g>
	<g>
		<g>
			<path class="st0" d="M1385.5,1508.5c-13.6-2.7-50.3-31.3-80.2-110.2c-17.1-45.1-65.3-277.4,0-293.7c65.3-16.3,53,100.6,53,208.1
				C1358.3,1378.2,1385.5,1508.5,1385.5,1508.5z"/>
		</g>
		<g>
			<path class="st0" d="M1415.4,1519.4c-34.3-2.3-27.2-349.5-29.9-431.1c-2.7-81.6-19-386.2,27.2-435.2c46.2-49,93.8-5.4,97.9,57.8
				c1.9,30-8.2,248.2-13.6,310.7c-5.4,62.6-12.2,204-17.7,293.7C1473.9,1405.2,1456.2,1522.1,1415.4,1519.4z"/>
		</g>
		<g>
			<g>
				<g>
					<path class="st0" d="M1479.3,1523.5c0,0,76.2-150.3,95.2-266.5c34-208.1,40.8-410.7-5.4-408c-46.2,2.7-49.6,206.7-51.7,293.7
						c-5.4,225.7-58.5,367.2-58.5,367.2L1479.3,1523.5z"/>
				</g>
			</g>
		</g>
		<g>
			<path class="st1" d="M1472.7,1517.3l-3.2-1.1c0.3-0.7,27.1-75.3,44.9-125.1c34.9-97.9,40.6-228,40.7-229.3l3.3,0.1
				c-0.1,1.3-5.9,131.9-40.9,230.3C1499.8,1442,1473,1516.5,1472.7,1517.3z"/>
		</g>
		<g>
			<path class="st1" d="M1426.6,1496.3h-3.3c0-46.4,8.1-182.3,8.2-183.7l3.3,0.2C1434.7,1314.2,1426.6,1450,1426.6,1496.3z"/>
		</g>
		<g>
			<path class="st1" d="M1372.4,1507.1c-0.3-0.7-28.8-70.2-45-132.8c-16.2-62.8-12.3-122.3-12.3-122.9l3.3,0.2
				c0,0.6-3.9,59.6,12.2,121.9c16.1,62.4,44.5,131.7,44.8,132.4L1372.4,1507.1z"/>
		</g>
		<g>
			<g>
				<g>
					<circle class="st2" cx="1435.1" cy="1315.4" r="10.2"/>
				</g>
			</g>
		</g>
		<g>
			<circle class="st2" cx="1316.8" cy="1252.9" r="10.2"/>
		</g>
		<g>
			<g>
				<g>
					<circle class="st2" cx="1556.8" cy="1161.8" r="10.2"/>
				</g>
			</g>
		</g>
	</g>
	<g>
		<g>
			<path class="st2" d="M762.5,340.8l-57,26.1c-7.1,3.3-15.1-2.4-14.4-10.2l5.9-62.5c0.7-7.8,9.7-11.9,16-7.3l51.1,36.3
				C770.5,327.8,769.6,337.5,762.5,340.8z"/>
		</g>
		<g>
			<path class="st2" d="M559.2,429.3l60.8,48.3c7.6,6,5.8,18-3.2,21.6l-72.2,28.5c-9,3.6-18.5-4-17.1-13.6l11.4-76.7
				C540.3,427.7,551.6,423.3,559.2,429.3z"/>
		</g>
		<g>
			<path class="st2" d="M641,357.1l5.6,46.8c0.7,5.9-5.2,10.3-10.6,8l-43.4-18.5c-5.4-2.3-6.3-9.6-1.6-13.2l37.7-28.3
				C633.5,348.3,640.3,351.2,641,357.1z"/>
		</g>
		<g>
			<path class="st2" d="M725.8,488.6l-54.5-31c-6.8-3.9-6.9-13.7-0.1-17.6l54.1-31.7c6.8-4,15.3,0.9,15.3,8.7l0.4,62.7
				C741.1,487.5,732.7,492.5,725.8,488.6z"/>
		</g>
		<g>
			<path class="st0" d="M680.9,583.8c-2.3-4.3-4.7-8.5-7-12.7c-26.1-47-50.8-91.4-13.9-151.8c36.8-60.2,62.9-95.6,63.2-96l2.7,2
				c-0.3,0.3-26.3,35.6-63,95.7c-35.8,58.7-11.6,102.3,14,148.4c2.3,4.2,4.7,8.4,7,12.7L680.9,583.8z"/>
		</g>
		<g>
			
				<rect x="638.5" y="376.2" transform="matrix(0.8415 -0.5403 0.5403 0.8415 -117.6025 410.1649)" class="st0" width="3.3" height="58.5"/>
		</g>
		<g>
			
				<rect x="612.7" y="458.1" transform="matrix(0.1595 -0.9872 0.9872 0.1595 35.3008 1016.1393)" class="st0" width="3.3" height="58.5"/>
		</g>
		<g>
			
				<rect x="647.8" y="447.5" transform="matrix(0.9985 -5.479390e-02 5.479390e-02 0.9985 -23.5924 37.7729)" class="st0" width="58.5" height="3.4"/>
		</g>
	</g>
	<g>
		<g>
			<path class="st2" d="M580.8,1375.2l59.1-7.5c7.4-0.9,13,6.5,10.2,13.3l-23.1,55c-2.9,6.9-12.1,8-16.6,2.1l-36.1-47.5
				C569.8,1384.8,573.4,1376.2,580.8,1375.2z"/>
		</g>
		<g>
			<path class="st2" d="M790.2,1352.6l-41.4-61c-5.2-7.6-0.2-18,9-18.7l73.5-5.4c9.2-0.7,15.7,8.9,11.7,17.2l-32.1,66.4
				C806.9,1359.4,795.4,1360.2,790.2,1352.6z"/>
		</g>
		<g>
			<path class="st2" d="M695.6,1394.9l8.2-44c1-5.5,7.6-7.8,11.9-4.2l34.1,29.1c4.3,3.6,3,10.5-2.3,12.4l-42.2,15
				C699.9,1405,694.5,1400.4,695.6,1394.9z"/>
		</g>
		<g>
			<path class="st2" d="M655.9,1251.6l40.7,43.6c5.1,5.4,2.4,14.4-4.9,16l-58.1,13.4c-7.3,1.7-13.6-5.1-11.4-12.3l17.4-57
				C641.7,1248.3,650.8,1246.2,655.9,1251.6z"/>
		</g>
		<g>
			<path class="st0" d="M611.6,1402.3l-2-2.7c0.3-0.2,33.9-24.9,84.2-69c49.1-43,39.5-89.4,29.4-138.5c-0.9-4.5-1.9-9-2.8-13.5
				l3.3-0.7c0.9,4.5,1.8,9,2.7,13.5c10.4,50.1,20.1,97.3-30.4,141.7C645.6,1377.4,611.9,1402,611.6,1402.3z"/>
		</g>
		<g>
			
				<rect x="708.4" y="1323.4" transform="matrix(0.9643 -0.2647 0.2647 0.9643 -332.3362 236.1372)" class="st0" width="3.4" height="55.6"/>
		</g>
		<g>
			
				<rect x="754.9" y="1256.5" transform="matrix(0.4467 -0.8947 0.8947 0.4467 -730.4272 1387.5457)" class="st0" width="3.3" height="55.6"/>
		</g>
		<g>
			
				<rect x="687.3" y="1273.4" transform="matrix(0.2465 -0.9691 0.9691 0.2465 -741.9238 1648.1831)" class="st0" width="3.3" height="55.6"/>
		</g>
	</g>
	<g>
		<polygon class="st3" points="1343.3,1477.3 1501.1,1477.3 1473.6,1679.5 1370.8,1679.5 		"/>
	</g>
	<g>
		<path class="st4" d="M552.7,1085.3l76.9,340.9l-61.1,218h-50.5l27-218.6c0,0-41-104.4-61.5-159.5l-34.6,7.7l11.5,159.5L420,1644.2
			h-50.5l6.4-209c0,0-54.5-263-53.8-296C320.7,1133.7,552.7,1085.3,552.7,1085.3z"/>
	</g>
	<g>
		<g>
			<g>
				<path class="st0" d="M572,1135.3l-238.4,46.1l-156.9-174c-18.7-15.7-19.9-44-2.8-61.3l102.8-103.4c17.2-17.3,45.5-16.2,61.3,2.4
					L572,1135.3z"/>
			</g>
		</g>
	</g>
	<g>
		<path class="st5" d="M245.4,898.2l-20.1,20.2c-6.2,6.3-17,5.7-24.1-1.4l-24.9-24.7c-7.1-7-7.7-17.8-1.5-24.1L195,848
			c6.2-6.3,17-5.7,24.1,1.4l24.9,24.7C251,881.1,251.7,891.9,245.4,898.2z"/>
	</g>
	<g>
		<g>
			<g>
				<path class="st0" d="M163.3,963.9c-6.1,15.3,6.1,213.1,17.3,227.4c22.4,28.6,201.9,40.8,201.9,40.8v-43.9L250,1141.4
					l-19.4-164.2C230.6,977.2,172.5,940.8,163.3,963.9z"/>
			</g>
		</g>
	</g>
	<g>
		<path class="st6" d="M229.1,813.7c19.4,35.4-7.6,54.1-43,73.5c-35.4,19.4-79.7,6.4-99.1-29c-19.4-35.4-6.4-79.7,29-99.1
			C151.4,739.8,209.7,778.3,229.1,813.7z"/>
	</g>
	<g>
		<path class="st7" d="M101.7,831c0,0,83.7-65.9,97-97.6c12.6-29.8,4.9-52.7-28-53.1c-42.2-0.5-64.7,44.1-73.6,94.2
			C94,791.1,101.7,831,101.7,831z"/>
	</g>
	<g>
		<defs>
			<path id="SVGID_19_" d="M229.1,813.7c19.4,35.4-7.6,54.1-43,73.5c-35.4,19.4-79.7,6.4-99.1-29c-19.4-35.4-6.4-79.7,29-99.1
				C151.4,739.8,209.7,778.3,229.1,813.7z"/>
		</defs>
		<clipPath id="SVGID_1_">
			<use xlink:href="#SVGID_19_"  style="overflow:visible;"/>
		</clipPath>
		<g class="st8">
			<path class="st7" d="M113.8,812.4c0,0,18.3,18.2,15.8,20.7c-2.5,2.5-15.7,8.2-13.8,23.9c1.9,15.7,18.3,16.9,28.3,10.6
				c10-6.3,25.8,20.7,2.6,36.4c-23.2,15.8-76.1-23-83.7-50.7c-7.6-27.6,4.8-79.2,17.3-89.3c12.5-10.1,45.3,11.2,45.3,11.2
				L113.8,812.4z"/>
		</g>
	</g>
	<g>
		
			<ellipse transform="matrix(0.7051 -0.7091 0.7091 0.7051 -529.592 404.9059)" class="st7" cx="222" cy="839.2" rx="51.1" ry="51.1"/>
	</g>
	<g>
		<path class="st6" d="M220.1,822.8L205,838c-3.1,3.1-8.1,3.1-11.2,0l-2.5-2.4c-3.1-3.1-3.1-8.1,0-11.2l15.1-15.2
			c3.1-3.1,8.1-3.1,11.2,0l2.5,2.4C223.2,814.6,223.2,819.7,220.1,822.8z"/>
	</g>
	<g>
		<g>
			<g>
				<polygon class="st9" points="657.4,1665.6 638.9,1657.5 842,1195.5 860.4,1203.6 				"/>
			</g>
			<g>
				
					<ellipse transform="matrix(0.9998 -1.846863e-02 1.846863e-02 0.9998 -30.5609 12.2334)" class="st1" cx="647.1" cy="1660.7" rx="18.5" ry="18.5"/>
			</g>
		</g>
		<g>
			<g>
				<polygon class="st9" points="1094,1665.6 1112.4,1657.5 907.7,1191.7 889.2,1199.7 				"/>
			</g>
			<g>
				
					<ellipse transform="matrix(1.846863e-02 -0.9998 0.9998 1.846863e-02 -576.5613 2734.1389)" class="st1" cx="1104.3" cy="1660.7" rx="18.5" ry="18.5"/>
			</g>
		</g>
	</g>
	<g>
		<path class="st10" d="M822.6,506.2c3.6-37.5,33.9-48.2,46.4-64.3c12.5-16.1,15.5-63.7,30.4-89.9c15.9-28.1,41.7-70.3,111.9-62.5
			c56.6,6.2,72,50.6,73.8,84.5c1.8,33.9,32.2,66.1,53.6,76.8c21.4,10.7,32.2,50,30.4,67.9C1167.3,536.6,822.6,506.2,822.6,506.2z"/>
	</g>
	<g>
		<path class="st4" d="M906.9,724.1h189.7l-26.1-96.8l49.8-155.1c2.1-20.5-17.7-38.2-43-38.2h-151c-25.3,0-45.1,17.6-43,38.2
			L937,627.3L906.9,724.1z"/>
	</g>
	<g>
		<path class="st4" d="M906.8,509.8c-15.4-1.7-38.2-29.6-71.8-88.9c-33.6-59.3-36.5-70.7-35.9-79.3c0.6-8.6,24.5-128.3,24.5-128.3
			H860l-10.8,130c0,0,44.9,73.6,73.4,91.4C938.5,444.6,906.8,509.8,906.8,509.8z"/>
	</g>
	<g>
		<path class="st4" d="M1094.9,509.8c15.4-1.7,38.2-29.6,71.8-88.9c33.6-59.3,36.5-70.7,35.9-79.3c-0.6-8.6-24.5-128.3-24.5-128.3
			h-36.5l10.8,130c0,0-45,70.9-69.1,92C1069.2,447.8,1094.9,509.8,1094.9,509.8z"/>
	</g>
	<g>
		<defs>
			<path id="SVGID_21_" d="M906.9,724.1h189.7l-26.1-96.8l49.8-155.1c2.1-20.5-17.7-38.2-43-38.2h-151c-25.3,0-45.1,17.6-43,38.2
				L937,627.3L906.9,724.1z"/>
		</defs>
		<clipPath id="SVGID_2_">
			<use xlink:href="#SVGID_21_"  style="overflow:visible;"/>
		</clipPath>
		<g class="st11">
			<circle class="st5" cx="1000.9" cy="402.9" r="76.1"/>
		</g>
	</g>
	<g>
		<g>
			<path class="st12" d="M1387,1219.8H364.4c-40.3,0-73-32.7-73-73V570.1c0-40.3,32.7-73,73-73H1387c40.3,0,73,32.7,73,73v576.7
				C1460,1187.1,1427.3,1219.8,1387,1219.8z"/>
		</g>
	</g>
	<g>
		<path class="st1" d="M484.3,712.5H383c-14.5,0-26.3-11.8-26.3-26.3V584.8c0-14.5,11.8-26.3,26.3-26.3h101.3
			c14.5,0,26.3,11.8,26.3,26.3v101.3C510.7,700.7,498.9,712.5,484.3,712.5z"/>
	</g>
	<g>
		<path class="st1" d="M707.3,712.5H605.9c-14.5,0-26.3-11.8-26.3-26.3V584.8c0-14.5,11.8-26.3,26.3-26.3h101.3
			c14.6,0,26.3,11.8,26.3,26.3v101.3C733.6,700.7,721.8,712.5,707.3,712.5z"/>
	</g>
	<g>
		<path class="st1" d="M930.2,712.5H828.8c-14.5,0-26.3-11.8-26.3-26.3V584.8c0-14.5,11.8-26.3,26.3-26.3h101.3
			c14.5,0,26.3,11.8,26.3,26.3v101.3C956.5,700.7,944.7,712.5,930.2,712.5z"/>
	</g>
	<g>
		<path class="st1" d="M1153.1,712.5h-101.3c-14.5,0-26.3-11.8-26.3-26.3V584.8c0-14.5,11.8-26.3,26.3-26.3h101.3
			c14.5,0,26.3,11.8,26.3,26.3v101.3C1179.4,700.7,1167.6,712.5,1153.1,712.5z"/>
	</g>
	<g>
		<g>
			<path class="st1" d="M1376,712.5h-101.3c-14.5,0-26.3-11.8-26.3-26.3V584.8c0-14.5,11.8-26.3,26.3-26.3H1376
				c14.5,0,26.3,11.8,26.3,26.3v101.3C1402.3,700.7,1390.5,712.5,1376,712.5z"/>
		</g>
	</g>
	<g>
		<path class="st1" d="M484.3,931.6H383c-14.5,0-26.3-11.8-26.3-26.3V804c0-14.5,11.8-26.3,26.3-26.3h101.3
			c14.5,0,26.3,11.8,26.3,26.3v101.3C510.7,919.8,498.9,931.6,484.3,931.6z"/>
	</g>
	<g>
		<path class="st1" d="M707.3,931.6H605.9c-14.5,0-26.3-11.8-26.3-26.3V804c0-14.5,11.8-26.3,26.3-26.3h101.3
			c14.6,0,26.3,11.8,26.3,26.3v101.3C733.6,919.8,721.8,931.6,707.3,931.6z"/>
	</g>
	<g>
		<path class="st1" d="M930.2,931.6H828.8c-14.5,0-26.3-11.8-26.3-26.3V804c0-14.5,11.8-26.3,26.3-26.3h101.3
			c14.5,0,26.3,11.8,26.3,26.3v101.3C956.5,919.8,944.7,931.6,930.2,931.6z"/>
	</g>
	<g>
		<path class="st1" d="M1376,931.6h-101.3c-14.5,0-26.3-11.8-26.3-26.3V804c0-14.5,11.8-26.3,26.3-26.3H1376
			c14.5,0,26.3,11.8,26.3,26.3v101.3C1402.3,919.8,1390.5,931.6,1376,931.6z"/>
	</g>
	<g>
		<path class="st1" d="M484.3,1150.8H383c-14.5,0-26.3-11.8-26.3-26.3v-101.3c0-14.5,11.8-26.3,26.3-26.3h101.3
			c14.5,0,26.3,11.8,26.3,26.3v101.3C510.7,1139,498.9,1150.8,484.3,1150.8z"/>
	</g>
	<g>
		<path class="st1" d="M707.3,1150.8H605.9c-14.5,0-26.3-11.8-26.3-26.3v-101.3c0-14.5,11.8-26.3,26.3-26.3h101.3
			c14.6,0,26.3,11.8,26.3,26.3v101.3C733.6,1139,721.8,1150.8,707.3,1150.8z"/>
	</g>
	<g>
		<path class="st1" d="M930.2,1150.8H828.8c-14.5,0-26.3-11.8-26.3-26.3v-101.3c0-14.5,11.8-26.3,26.3-26.3h101.3
			c14.5,0,26.3,11.8,26.3,26.3v101.3C956.5,1139,944.7,1150.8,930.2,1150.8z"/>
	</g>
	<g>
		<path class="st1" d="M1153.1,1150.8h-101.3c-14.5,0-26.3-11.8-26.3-26.3v-101.3c0-14.5,11.8-26.3,26.3-26.3h101.3
			c14.5,0,26.3,11.8,26.3,26.3v101.3C1179.4,1139,1167.6,1150.8,1153.1,1150.8z"/>
	</g>
	<g>
		<path class="st1" d="M1376,1150.8h-101.3c-14.5,0-26.3-11.8-26.3-26.3v-101.3c0-14.5,11.8-26.3,26.3-26.3H1376
			c14.5,0,26.3,11.8,26.3,26.3v101.3C1402.3,1139,1390.5,1150.8,1376,1150.8z"/>
	</g>
	<g>
		<path class="st13" d="M568.5,1643.5h-50.8v33.4H606c5.8,0,7.8-13.1,2.7-15.9L568.5,1643.5z"/>
	</g>
	<g>
		<path class="st13" d="M420,1643.5h-50.9v33.4h88.3c5.8,0,7.8-13.1,2.7-15.9L420,1643.5z"/>
	</g>
	<g>
		<path class="st14" d="M1200.2,887.6c11.5,3.8,41.1,27.1,54.6,53.1c10.1,19.4,62,123.8,59.5,140.4
			c-2.6,16.7-157.6,117.9-157.6,117.9l-23.1-51.3c0,0,107.6-71.8,103.8-82c-3.8-10.3-58-118.8-58-118.8L1200.2,887.6z"/>
	</g>
	<g>
		<path class="st6" d="M1102.8,1247.7H1010l5,401.2h35.9c0,0,27.2-201.8,37.4-313.4h13C1103,1306.3,1103,1277.1,1102.8,1247.7z"/>
	</g>
	<g>
		<path class="st6" d="M1121.3,1237.7l-85.4,41.5c13,26.4,25.7,52.6,37,79.6l10.6-5.2l143.8,278.6l32.3-15.7
			c0,0-99.5-301.5-127.1-355.6C1131.4,1256.5,1121.3,1237.7,1121.3,1237.7z"/>
	</g>
	<g>
		<path class="st14" d="M1171.7,1119.2h-132.6l-34-213.7c-1.8-17.4,15-32.4,36.5-32.4h138.1c21.4,0,38.3,15,36.5,32.4L1171.7,1119.2
			z"/>
	</g>
	<g>
		<path class="st0" d="M1011.9,1648.4h40.6v31.1h-82.3c-5.4,0-7.3-12.2-2.5-14.8L1011.9,1648.4z"/>
	</g>
	<g>
		<path class="st0" d="M1223.7,1633.4l36.5-17.7l13.6,28l-74,36c-4.9,2.4-11.9-7.8-8.8-12.2L1223.7,1633.4z"/>
	</g>
	<g>
		<g>
			<g>
				<path class="st15" d="M1039.1,1119.2h132.6c0,0,34.6,40.5,58.9,160.9c20.8,103,42.3,258.9,42.3,258.9H957.4
					c0,0,22.7-229.2,40.4-303.7C1016,1158.3,1039.1,1119.2,1039.1,1119.2z"/>
			</g>
		</g>
	</g>
	<g>
		<defs>
			<path id="SVGID_23_" d="M1171.7,1119.2h-132.6l-34-213.7c-1.8-17.4,15-32.4,36.5-32.4h138.1c21.4,0,38.3,15,36.5,32.4
				L1171.7,1119.2z"/>
		</defs>
		<clipPath id="SVGID_3_">
			<use xlink:href="#SVGID_23_"  style="overflow:visible;"/>
		</clipPath>
		<g class="st16">
			<rect x="980.1" y="1080.8" class="st17" width="269.1" height="15.4"/>
		</g>
		<g class="st16">
			<rect x="980.1" y="1043.3" class="st17" width="269.1" height="15.4"/>
		</g>
		<g class="st16">
			<rect x="980.1" y="1005.7" class="st17" width="269.1" height="15.4"/>
		</g>
		<g class="st16">
			<rect x="980.1" y="968.2" class="st17" width="269.1" height="15.4"/>
		</g>
		<g class="st16">
			<rect x="980.1" y="930.6" class="st17" width="269.1" height="15.4"/>
		</g>
		<g class="st16">
			<rect x="980.1" y="893.1" class="st17" width="269.1" height="15.4"/>
		</g>
	</g>
	<g>
		<path class="st5" d="M1095.1,887.6h24.2c7.5,0,13.6-6.9,13.6-15.3v-29.8c0-8.5-6.1-15.3-13.6-15.3h-24.2
			c-7.5,0-13.6,6.9-13.6,15.3v29.8C1081.5,880.8,1087.6,887.6,1095.1,887.6z"/>
	</g>
	<g>
		<path class="st18" d="M1054,827.1c9.7,32.9,37.2,27.8,70.1,18.1c32.9-9.7,51.7-44.2,41.9-77.1c-9.7-32.9-44.2-51.7-77.1-41.9
			C1056,735.9,1044.3,794.2,1054,827.1z"/>
	</g>
	<g>
		<path class="st4" d="M1090.9,717.5c-38,14.6-40.8,34.1-42.8,46.3c-1.7,10.8,5.8,3.8,23.5,6.2c10.5,1.4,20.7,1.4,21.6,8.2
			c2.2,15.3,0.2,140.5,7.8,140.5c7.7,0,118.4,6.7,120.9-3.5c2.6-10.3-18.3-154.7-59.6-183.6C1129,708.2,1107.6,711.1,1090.9,717.5z"
			/>
	</g>
	<g>
		<path class="st14" d="M1049.9,873.9c0,0-103.4-4.4-116.6-7.7c-13.2-3.3-100.8-130.3-100.8-130.3l-27.6,14.3
			c0,0,79.4,148.9,95.9,155.5c16.5,6.6,114.5,43.8,114.5,43.8s17.9,0,29.5-29.5C1057,889,1049.9,873.9,1049.9,873.9z"/>
	</g>
	<g>
		<defs>
			<path id="SVGID_25_" d="M930.2,712.5H828.8c-14.5,0-26.3-11.8-26.3-26.3V584.8c0-14.5,11.8-26.3,26.3-26.3h101.3
				c14.5,0,26.3,11.8,26.3,26.3v101.3C956.5,700.7,944.7,712.5,930.2,712.5z"/>
		</defs>
		<clipPath id="SVGID_4_">
			<use xlink:href="#SVGID_25_"  style="overflow:visible;"/>
		</clipPath>
		<g class="st19">
			<g>
				<g>
					
						<rect x="870.7" y="419.2" transform="matrix(0.7071 -0.7071 0.7071 0.7071 -191.76 808.0762)" class="st0" width="17.6" height="432.6"/>
				</g>
			</g>
			<g>
				<g>
					
						<rect x="663.2" y="626.7" transform="matrix(0.7072 -0.7071 0.7071 0.7072 -191.7772 807.9694)" class="st0" width="432.6" height="17.6"/>
				</g>
			</g>
		</g>
	</g>
	<g>
		<defs>
			<path id="SVGID_27_" d="M484.3,931.6H383c-14.5,0-26.3-11.8-26.3-26.3V804c0-14.5,11.8-26.3,26.3-26.3h101.3
				c14.5,0,26.3,11.8,26.3,26.3v101.3C510.7,919.8,498.9,931.6,484.3,931.6z"/>
		</defs>
		<clipPath id="SVGID_5_">
			<use xlink:href="#SVGID_27_"  style="overflow:visible;"/>
		</clipPath>
		<g class="st20">
			<g>
				<g>
					
						<rect x="424.9" y="638.4" transform="matrix(0.7071 -0.7071 0.7071 0.7071 -477.3039 557.0034)" class="st0" width="17.6" height="432.6"/>
				</g>
			</g>
			<g>
				<g>
					
						<rect x="217.4" y="845.8" transform="matrix(0.7071 -0.7071 0.7071 0.7071 -477.3039 557.0034)" class="st0" width="432.6" height="17.6"/>
				</g>
			</g>
		</g>
	</g>
	<g>
		<defs>
			<path id="SVGID_29_" d="M707.3,1150.8H605.9c-14.5,0-26.3-11.8-26.3-26.3v-101.3c0-14.5,11.8-26.3,26.3-26.3h101.3
				c14.6,0,26.3,11.8,26.3,26.3v101.3C733.6,1139,721.8,1150.8,707.3,1150.8z"/>
		</defs>
		<clipPath id="SVGID_6_">
			<use xlink:href="#SVGID_29_"  style="overflow:visible;"/>
		</clipPath>
		<g class="st21">
			
				<rect x="647.8" y="857.5" transform="matrix(0.7071 -0.7071 0.7071 0.7071 -566.9533 778.7852)" class="st0" width="17.6" height="432.6"/>
		</g>
		<g class="st21">
			
				<rect x="440.3" y="1065" transform="matrix(0.7071 -0.7071 0.7071 0.7071 -566.9506 778.7738)" class="st0" width="432.6" height="17.6"/>
		</g>
	</g>
	<g>
		<rect x="970.3" y="380" class="st5" width="57.2" height="71.4"/>
	</g>
	<g>
		<path class="st6" d="M1019.1,402.6c-24,20.1-40.6,2.1-60.8-21.9c-20.1-24-17-59.8,7-79.9c24-20.1,59.8-17,79.9,7
			C1065.4,331.8,1043.1,382.5,1019.1,402.6z"/>
	</g>
	<g>
		<path class="st10" d="M989.4,298.1c-12.4,0-36.1-37.1-14.4-57.8c20.4-19.4,53.5-1.6,54.7,19.6
			C1031.6,296.1,1016.2,298.1,989.4,298.1z"/>
	</g>
	<g>
		<defs>
			<path id="SVGID_31_" d="M1020.9,402.3c-24,20.1-42.4,2.4-62.5-21.6c-20.1-24-19.8-58.6,4.2-78.7c24-20.1,62.6-19.8,82.8,4.2
				C1065.4,330.2,1044.9,382.2,1020.9,402.3z"/>
		</defs>
		<clipPath id="SVGID_7_">
			<use xlink:href="#SVGID_31_"  style="overflow:visible;"/>
		</clipPath>
		<g class="st22">
			<g>
				<g>
					<path class="st10" d="M928.6,358.5c8.3,0,34.5-6.4,40.5-24.3c6-17.9,7.6-20.5,25.9-20.5c23.7,0,30.5,0.3,33.9,12.9
						c5.4,19.6,33,48.7,50.9,45.1c17.9-3.6,10.7-60.9-17.9-74c-28.6-13.1-107.2-34.5-120.3-11.9c-13.1,22.6-17.9,72.6-17.9,72.6
						H928.6z"/>
				</g>
			</g>
		</g>
	</g>
	<g>
		
			<rect x="800.5" y="670.9" transform="matrix(0.7071 -0.7071 0.7071 0.7071 -239.0046 788.0091)" class="st14" width="62.5" height="23.2"/>
	</g>
	<g>
		<path class="st6" d="M832.5,735.9c0,0,7.9-38.9-1.7-40.8c-6.3-1.3-8.3,16-17.3,12.8c-3.8-1.4,5.8-36.5-1.3-37.2
			c-7-0.6-21.8,34-20.5,43.6c1.3,9.6,13.2,35.9,13.2,35.9L832.5,735.9z"/>
	</g>
	<g>
		<polygon class="st12" points="845.6,652.2 862,668.6 868.6,651.5 864.2,646.6 		"/>
	</g>
	<g>
		<path class="st0" d="M864.2,646.6l4.4,4.9c0,0,6.3-5.9,3.8-8.3C869.6,640.3,864.2,646.6,864.2,646.6z"/>
	</g>
	<g>
		<defs>
			<path id="SVGID_33_" d="M1039.1,1119.2h132.6c0,0,34.6,40.5,58.9,160.9c20.8,103,42.3,258.9,42.3,258.9H957.4
				c0,0,22.7-229.2,40.4-303.7C1016,1158.3,1039.1,1119.2,1039.1,1119.2z"/>
		</defs>
		<clipPath id="SVGID_8_">
			<use xlink:href="#SVGID_33_"  style="overflow:visible;"/>
		</clipPath>
		<g class="st23">
			<g>
				<g>
					<path class="st0" d="M990.4,1182.2h69.4c0,0,6.1,90.4-49,108.1c-43,13.8-53-10.2-53-10.2L990.4,1182.2z"/>
				</g>
			</g>
		</g>
	</g>
	<g>
		<path class="st6" d="M382.6,1232.1c0,0,64.3-5.1,70.4-14.3c6.1-9.2-11.2-23.5-34.7-21.4c-23.5,2-36.7,21.4-36.7,21.4L382.6,1232.1
			z"/>
	</g>
	<g>
		<path class="st6" d="M823.5,213.3H860c0,0,12.1-54.6,5.5-57.7c-4-1.8-9.7,17.3-12.2,21.9c-2.5,4.6-22.4-2-27.5,5.1
			C820.6,189.8,823.5,213.3,823.5,213.3z"/>
	</g>
	<g>
		<path class="st6" d="M1178.4,213.3h-36.5c0,0-12.1-54.6-5.5-57.7c4-1.8,9.7,17.3,12.2,21.9c2.5,4.6,22.4-2,27.5,5.1
			C1181.3,189.8,1178.4,213.3,1178.4,213.3z"/>
	</g>
	<g>
		<defs>
			<polygon id="SVGID_35_" points="1343.3,1477.3 1501.1,1477.3 1473.6,1679.5 1370.8,1679.5 			"/>
		</defs>
		<clipPath id="SVGID_9_">
			<use xlink:href="#SVGID_35_"  style="overflow:visible;"/>
		</clipPath>
		<g class="st24">
			<rect x="1304.6" y="1494.3" class="st12" width="293.7" height="16.3"/>
		</g>
	</g>
	<g>
		<path class="st3" d="M1016.9,55c0,14.4-17.5,51.5-17.5,51.5S978.2,69.4,978.2,55s21.3-55.3,21.3-55.3S1016.9,40.7,1016.9,55z"/>
	</g>
	<g>
		<path class="st3" d="M826.9,90.5c8.2,11.8,15.2,52.2,15.2,52.2s-38.7-18.2-47-30c-8.2-11.8-14.3-57.5-14.3-57.5
			S818.6,78.7,826.9,90.5z"/>
	</g>
	<g>
		<path class="st3" d="M713,224.8c13.4,5.3,41.5,35.1,41.5,35.1s-42.4,6.2-55.7,0.9c-13.4-5.3-43.7-40-43.7-40
			S699.6,219.5,713,224.8z"/>
	</g>
	<g>
		<path class="st3" d="M1166.8,90.5c-8.2,11.8-15.2,52.2-15.2,52.2s38.7-18.2,47-30c8.2-11.8,14.3-57.5,14.3-57.5
			S1175,78.7,1166.8,90.5z"/>
	</g>
	<g>
		<path class="st3" d="M1280.6,224.8c-13.4,5.3-41.5,35.1-41.5,35.1s42.4,6.2,55.7,0.9c13.4-5.3,43.7-40,43.7-40
			S1294,219.5,1280.6,224.8z"/>
	</g>
</g>
</svg>
