<?xml version="1.0" encoding="utf-8"?>
<!-- Generator: Adobe Illustrator 20.1.0, SVG Export Plug-In . SVG Version: 6.00 Build 0)  -->
<svg version="1.1" id="Layer_1" xmlns="http://www.w3.org/2000/svg" xmlns:xlink="http://www.w3.org/1999/xlink" x="0px" y="0px"
	 viewBox="0 0 1680 1680" style="enable-background:new 0 0 1680 1680;" xml:space="preserve">
<style type="text/css">
	.st0{fill:#FFDAAE;}
	.st1{fill:#03053F;}
	.st2{fill:#0B3D00;}
	.st3{fill:#9B9B9B;}
	.st4{fill:#48C144;}
	.st5{fill:#FF9100;}
	.st6{fill:#FEE2E3;}
	.st7{fill:#4AC144;}
	.st8{fill:#FFBE71;}
	.st9{clip-path:url(#SVGID_2_);}
	.st10{fill:#03053F;stroke:#231F20;stroke-width:2.1995;stroke-miterlimit:10;}
	.st11{fill:#E98896;}
	.st12{clip-path:url(#SVGID_3_);}
	.st13{fill:#2D2D2D;}
	.st14{fill:#87D873;}
</style>
<g>
	<g>
		<path class="st0" d="M953.4,311.6c-1,41.4-53.9,147.3-53.9,147.3S840.8,350.4,841.7,309c1-41.4,65.1-158,65.1-158
			S954.4,270.2,953.4,311.6z"/>
	</g>
	<g>
		<path class="st0" d="M655.5,388.6c27.9,30.6,63,143.7,63,143.7S600.9,494.5,573,464c-27.9-30.6-62.3-159.1-62.3-159.1
			S627.5,358.1,655.5,388.6z"/>
	</g>
	<g>
		<path class="st0" d="M1132,388.6c-27.9,30.6-63,143.7-63,143.7s117.5-37.7,145.5-68.3c27.9-30.6,62.3-159.1,62.3-159.1
			S1159.9,358.1,1132,388.6z"/>
	</g>
	<g>
		<rect x="897.5" y="293" class="st1" width="3.6" height="967.9"/>
	</g>
	<g>
		<path class="st1" d="M826.3,1252.5c-0.2-4.1-16.6-412.4-39.8-552.1c-28-168.1-188.4-290.9-190.1-292.1l2.1-2.8
			c1.6,1.2,163.2,124.8,191.4,294.4c23.3,139.9,39.7,548.4,39.9,552.5L826.3,1252.5z"/>
	</g>
	<g>
		<path class="st1" d="M968,1252.5l-3.6-0.1c0.2-4.1,16.6-412.6,39.9-552.5c28.3-169.6,189.8-293.1,191.4-294.4l2.1,2.8
			c-1.6,1.2-162,124-190.1,292.1C984.5,840.1,968.1,1248.4,968,1252.5z"/>
	</g>
	<g>
		<g>
			<path class="st2" d="M962.7,1207.7H813.4c0,0-33,15.5-36.9,65.7c-7.1,91.5,50.1,252.3,50.1,252.3h140.9c0,0,46.8-192,36.5-252.3
				C995.7,1225,962.7,1207.7,962.7,1207.7z"/>
		</g>
	</g>
	<g>
		<rect x="475.7" y="1080.2" class="st3" width="61.9" height="237"/>
	</g>
	<g>
		<rect x="488.5" y="1248.9" class="st3" width="36.3" height="237"/>
	</g>
	<g>
		<path class="st2" d="M153.4,710.1l195,316c0,0,337.4,52.7,340.2,24.2c0.6-5.8,4.3-111-22.8-119.6
			C638.8,922.2,153.4,710.1,153.4,710.1z"/>
	</g>
	<g>
		<path class="st2" d="M657.3,1110.1H327.1c-17.3,0-31.3-14-31.3-31.3v-28.5c0-17.3,14-31.3,31.3-31.3h330.2
			c17.3,0,31.3,14,31.3,31.3v28.5C688.6,1096.1,674.6,1110.1,657.3,1110.1z"/>
	</g>
	<g>
		<path class="st4" d="M307.1,1105.8l48.4-86.8c0,0-224.8-353.1-230.6-351.6c-5.7,1.5-71.2-12.8-71.2,24.2
			C53.8,728.6,307.1,1105.8,307.1,1105.8z"/>
	</g>
	<g>
		<g>
			<path class="st3" d="M329,1490.2c-11.4-17.6-17.2-36.4-17.2-56c0-74.5,87.4-135.1,194.8-135.1c107.4,0,194.8,60.6,194.8,135.1
				c0,18.1-5,35.6-14.8,52.1l-28.6-17.1c6.7-11.3,10.1-23.1,10.1-35.1c0-55.2-74-101.8-161.5-101.8c-87.5,0-161.5,46.6-161.5,101.8
				c0,13,4,25.7,11.8,37.8L329,1490.2z"/>
		</g>
	</g>
	<g>
		<g>
			<path class="st3" d="M1000,1514.5c-17.2,17.2-45.2,17.2-62.4,0l0,0c-17.2-17.2-17.2-45.2,0-62.4l74.5-74.5
				c17.2-17.2,45.2-17.2,62.4,0l0,0c17.2,17.2,17.2,45.2,0,62.4L1000,1514.5z"/>
		</g>
		<g>
			<path class="st3" d="M1527.4,1514.5c17.2,17.2,45.2,17.2,62.4,0l0,0c17.2-17.2,17.2-45.2,0-62.4l-74.5-74.5
				c-17.2-17.2-45.2-17.2-62.4,0l0,0c-17.2,17.2-17.2,45.2,0,62.4L1527.4,1514.5z"/>
		</g>
		<g>
			<g>
				<path class="st3" d="M1051.2,676.4c-13.2-20.3-19.8-42-19.8-64.6c0-85.9,100.8-155.9,224.7-155.9
					c123.9,0,224.7,69.9,224.7,155.9c0,20.9-5.8,41.1-17.1,60.1l-33-19.7c7.7-13,11.7-26.6,11.7-40.5c0-63.6-85.3-117.4-186.3-117.4
					c-101,0-186.3,53.8-186.3,117.4c0,15,4.6,29.7,13.6,43.6L1051.2,676.4z"/>
			</g>
		</g>
		<g>
			
				<rect x="1446.3" y="664.1" transform="matrix(0.54 -0.8417 0.8417 0.54 62.4332 1624.0554)" class="st0" width="141.3" height="181.6"/>
		</g>
		<g>
			<path class="st5" d="M1413.4,673.2c3.4-7.1,7.4-14.1,12.1-20.8c43.8-61.9,129.5-76.5,191.3-32.8c61.9,43.8,76.5,129.5,32.8,191.3
				c-4.7,6.7-10,12.8-15.6,18.3L1413.4,673.2z"/>
		</g>
		<g>
			
				<rect x="905.7" y="689.9" transform="matrix(0.8417 -0.54 0.54 0.8417 -252.9402 658.5714)" class="st0" width="181.6" height="141.3"/>
		</g>
		<g>
			<circle class="st5" cx="1260.3" cy="1111.4" r="417.6"/>
		</g>
		<g>
			<circle class="st6" cx="1260.3" cy="1111.4" r="347.2"/>
		</g>
		<g>
			<circle class="st7" cx="1260.3" cy="809.2" r="12.8"/>
		</g>
		<g>
			<ellipse transform="matrix(0.866 -0.5 0.5 0.866 -276.2453 668.4791)" class="st7" cx="1109.3" cy="849.7" rx="12.8" ry="12.8"/>
		</g>
		<g>
			<ellipse transform="matrix(0.5 -0.866 0.866 0.5 -332.3068 1345.0259)" class="st7" cx="998.7" cy="960.3" rx="12.8" ry="12.8"/>
		</g>
		<g>
			<circle class="st7" cx="958.2" cy="1111.4" r="12.8"/>
		</g>
		<g>
			<ellipse transform="matrix(0.866 -0.5 0.5 0.866 -497.4139 668.4595)" class="st7" cx="998.7" cy="1262.4" rx="12.8" ry="12.8"/>
		</g>
		<g>
			<ellipse transform="matrix(0.5 -0.866 0.866 0.5 -634.4387 1647.132)" class="st7" cx="1109.3" cy="1373" rx="12.8" ry="12.8"/>
		</g>
		<g>
			<circle class="st7" cx="1260.3" cy="1413.5" r="12.8"/>
		</g>
		<g>
			<ellipse transform="matrix(0.866 -0.5 0.5 0.866 -497.4209 889.6566)" class="st7" cx="1411.4" cy="1373" rx="12.8" ry="12.8"/>
		</g>
		<g>
			<ellipse transform="matrix(0.5 -0.866 0.866 0.5 -332.3094 1949.2726)" class="st7" cx="1522" cy="1262.4" rx="12.8" ry="12.8"/>
		</g>
		<g>
			<circle class="st7" cx="1562.4" cy="1111.4" r="12.8"/>
		</g>
		<g>
			<ellipse transform="matrix(0.866 -0.5 0.5 0.866 -276.2438 889.6429)" class="st7" cx="1522" cy="960.3" rx="12.8" ry="12.8"/>
		</g>
		<g>
			<ellipse transform="matrix(0.5 -0.866 0.866 0.5 -30.1874 1647.135)" class="st7" cx="1411.4" cy="849.7" rx="12.8" ry="12.8"/>
		</g>
		<g>
			
				<rect x="1172" y="982.9" transform="matrix(0.4687 -0.8834 0.8834 0.4687 -309.0502 1611.8389)" class="st7" width="26.7" height="159.9"/>
		</g>
		<g>
			
				<rect x="1249.8" y="1037.3" transform="matrix(0.8757 -0.4828 0.4828 0.8757 -335.3482 791.5638)" class="st7" width="240.3" height="19.8"/>
		</g>
		<g>
			<circle class="st8" cx="1260.3" cy="1111.4" r="60.9"/>
		</g>
		<g>
			<path class="st5" d="M1100.1,678.9c-3.4-7.1-7.4-14.1-12.1-20.8c-43.8-61.9-129.5-76.5-191.3-32.8
				c-61.9,43.8-76.5,129.5-32.8,191.3c4.7,6.7,10,12.8,15.6,18.3L1100.1,678.9z"/>
		</g>
	</g>
	<g>
		<g>
			<g>
				<path class="st4" d="M479.6,902l99-304.5c6-18.3,23.6-30.2,42.8-29L928.3,589L873,642.1L667.8,666l-27.7,196.7L479.6,902z"/>
			</g>
		</g>
		<g>
			<defs>
				<path id="SVGID_1_" d="M557.9,853.7l-124.1-250c-1.6-45-3.6-113.6-3.6-174.9c0-29.4-19.9-36.3-39.1-32.6
					c-59.2,11.4-177.2,46.7-209.9,56.7c-3.2,1-3.7,5.3-0.7,6.9l53.8,29.5c0.7,0.4,1.4,0.5,2.1,0.5l110.6-9.2
					c2.4-0.2,4.4,1.8,4.1,4.2c-1,8.9-4.4,31.5-7.8,55.4c-1.6,0.8-3.3,1.8-4.9,2.8L178.5,643.1c-3.8,2.4-7.2,5.1-10.2,7.9
					c-27.5-6.6-53-12.9-61.6-15.4c-2.3-0.7-3.3-3.3-2.2-5.4l52.4-97.8c0.4-0.7,0.5-1.4,0.4-2.1l-5.7-61.1c-0.3-3.3-4.5-4.7-6.7-2.1
					C122.8,493.1,43.5,587.4,9.5,637.2C-1.5,653.3-3.1,674.3,24,686c65.1,28.1,138.1,62.7,176.6,81.1l153.2,207.1L557.9,853.7z"/>
			</defs>
			<use xlink:href="#SVGID_1_"  style="overflow:visible;fill:#FFFFFF;"/>
			<clipPath id="SVGID_2_">
				<use xlink:href="#SVGID_1_"  style="overflow:visible;"/>
			</clipPath>
			<g class="st9">
				<g>
					<g>
						
							<rect x="168.1" y="415.1" transform="matrix(0.8721 -0.4892 0.4892 0.8721 -189.2359 148.3844)" class="st10" width="42.3" height="42.3"/>
					</g>
					<g>
						
							<rect x="225.7" y="431.3" transform="matrix(0.8721 -0.4892 0.4892 0.8721 -189.7973 178.6212)" class="st10" width="42.3" height="42.3"/>
					</g>
					<g>
						
							<rect x="241.9" y="373.7" transform="matrix(0.8721 -0.4892 0.4892 0.8721 -159.5603 179.1828)" class="st10" width="42.3" height="42.3"/>
					</g>
					<g>
						
							<rect x="299.5" y="389.9" transform="matrix(0.8721 -0.4892 0.4892 0.8721 -160.1222 209.4205)" class="st10" width="42.3" height="42.3"/>
					</g>
					<g>
						
							<rect x="315.7" y="332.4" transform="matrix(0.8721 -0.4892 0.4892 0.8721 -129.8848 209.981)" class="st10" width="42.3" height="42.3"/>
					</g>
					<g>
						
							<rect x="373.2" y="348.5" transform="matrix(0.8722 -0.4892 0.4892 0.8722 -130.4414 240.1989)" class="st10" width="42.3" height="42.3"/>
					</g>
				</g>
				<g>
					<g>
						
							<rect x="209.5" y="488.9" transform="matrix(0.8721 -0.4892 0.4892 0.8721 -220.0317 178.0565)" class="st10" width="42.3" height="42.3"/>
					</g>
					<g>
						
							<rect x="267.1" y="505.1" transform="matrix(0.8721 -0.4893 0.4893 0.8721 -220.5989 208.3024)" class="st10" width="42.3" height="42.3"/>
					</g>
					<g>
						
							<rect x="283.3" y="447.5" transform="matrix(0.8721 -0.4893 0.4893 0.8721 -190.3613 208.8634)" class="st10" width="42.3" height="42.3"/>
					</g>
					<g>
						
							<rect x="340.9" y="463.7" transform="matrix(0.8721 -0.4893 0.4893 0.8721 -190.9224 239.101)" class="st10" width="42.3" height="42.3"/>
					</g>
					<g>
						
							<rect x="357" y="406.1" transform="matrix(0.8722 -0.4892 0.4892 0.8722 -160.6757 239.6361)" class="st10" width="42.3" height="42.3"/>
					</g>
					<g>
						
							<rect x="414.6" y="422.3" transform="matrix(0.8722 -0.4892 0.4892 0.8722 -161.2399 269.8782)" class="st10" width="42.3" height="42.3"/>
					</g>
				</g>
				<g>
					<g>
						
							<rect x="-53.2" y="539.2" transform="matrix(0.8721 -0.4893 0.4893 0.8721 -278.273 55.9946)" class="st10" width="42.3" height="42.3"/>
					</g>
					<g>
						
							<rect x="4.4" y="555.4" transform="matrix(0.8721 -0.4892 0.4892 0.8721 -278.8194 86.2233)" class="st10" width="42.3" height="42.3"/>
					</g>
					<g>
						
							<rect x="20.6" y="497.9" transform="matrix(0.8721 -0.4892 0.4892 0.8721 -248.5874 86.7878)" class="st10" width="42.3" height="42.3"/>
					</g>
					<g>
						
							<rect x="78.2" y="514.1" transform="matrix(0.8721 -0.4892 0.4892 0.8721 -249.1452 117.0219)" class="st10" width="42.3" height="42.3"/>
					</g>
					<g>
						
							<rect x="94.4" y="456.5" transform="matrix(0.8722 -0.4892 0.4892 0.8722 -218.9049 117.58)" class="st10" width="42.3" height="42.3"/>
					</g>
					<g>
						
							<rect x="151.9" y="472.7" transform="matrix(0.8722 -0.4892 0.4892 0.8722 -219.4604 147.8087)" class="st10" width="42.3" height="42.3"/>
					</g>
				</g>
				<g>
					<g>
						
							<rect x="-11.8" y="613" transform="matrix(0.8721 -0.4893 0.4893 0.8721 -309.0666 85.6683)" class="st10" width="42.3" height="42.3"/>
					</g>
					<g>
						
							<rect x="45.8" y="629.2" transform="matrix(0.8721 -0.4892 0.4892 0.8721 -309.6183 115.8991)" class="st10" width="42.3" height="42.3"/>
					</g>
					<g>
						
							<rect x="62" y="571.6" transform="matrix(0.8721 -0.4893 0.4893 0.8721 -279.3906 116.4672)" class="st10" width="42.3" height="42.3"/>
					</g>
					<g>
						
							<rect x="119.6" y="587.8" transform="matrix(0.8721 -0.4892 0.4892 0.8721 -279.9431 146.6971)" class="st10" width="42.3" height="42.3"/>
					</g>
					<g>
						
							<rect x="135.8" y="530.3" transform="matrix(0.8721 -0.4892 0.4892 0.8721 -249.7074 147.2592)" class="st10" width="42.3" height="42.3"/>
					</g>
					<g>
						
							<rect x="193.3" y="546.4" transform="matrix(0.8721 -0.4893 0.4893 0.8721 -250.275 177.5035)" class="st10" width="42.3" height="42.3"/>
					</g>
				</g>
				<g>
					<g>
						
							<rect x="251.4" y="563.5" transform="matrix(0.8721 -0.4893 0.4893 0.8721 -251.1786 208.0707)" class="st10" width="42.3" height="42.3"/>
					</g>
					<g>
						
							<rect x="308.9" y="579.7" transform="matrix(0.8722 -0.4892 0.4892 0.8722 -251.7267 238.2871)" class="st10" width="42.3" height="42.3"/>
					</g>
					<g>
						
							<rect x="325.1" y="522.1" transform="matrix(0.8721 -0.4892 0.4892 0.8721 -221.4968 238.859)" class="st10" width="42.3" height="42.3"/>
					</g>
					<g>
						
							<rect x="382.7" y="538.3" transform="matrix(0.8721 -0.4893 0.4893 0.8721 -222.0629 269.1059)" class="st10" width="42.3" height="42.3"/>
					</g>
					<g>
						
							<rect x="398.9" y="480.7" transform="matrix(0.8721 -0.4893 0.4893 0.8721 -191.8258 269.6681)" class="st10" width="42.3" height="42.3"/>
					</g>
					<g>
						
							<rect x="456.5" y="496.9" transform="matrix(0.8721 -0.4893 0.4893 0.8721 -192.3872 299.9058)" class="st10" width="42.3" height="42.3"/>
					</g>
				</g>
				<g>
					<g>
						
							<rect x="292.7" y="637.2" transform="matrix(0.8722 -0.4892 0.4892 0.8722 -281.962 237.7254)" class="st10" width="42.3" height="42.3"/>
					</g>
					<g>
						
							<rect x="350.3" y="653.4" transform="matrix(0.8722 -0.4892 0.4892 0.8722 -282.5197 267.9544)" class="st10" width="42.3" height="42.3"/>
					</g>
					<g>
						
							<rect x="366.5" y="595.8" transform="matrix(0.8721 -0.4892 0.4892 0.8721 -252.2948 268.5343)" class="st10" width="42.3" height="42.3"/>
					</g>
					<g>
						
							<rect x="424.1" y="612" transform="matrix(0.8721 -0.4892 0.4892 0.8721 -252.8587 298.7764)" class="st10" width="42.3" height="42.3"/>
					</g>
					<g>
						
							<rect x="440.3" y="554.5" transform="matrix(0.8721 -0.4893 0.4893 0.8721 -222.6246 299.3447)" class="st10" width="42.3" height="42.3"/>
					</g>
					<g>
						
							<rect x="497.8" y="570.7" transform="matrix(0.8721 -0.4893 0.4893 0.8721 -223.1887 329.5898)" class="st10" width="42.3" height="42.3"/>
					</g>
				</g>
				<g>
					<g>
						
							<rect x="30.1" y="687.6" transform="matrix(0.8721 -0.4892 0.4892 0.8721 -340.1958 115.6665)" class="st10" width="42.3" height="42.3"/>
					</g>
					<g>
						
							<rect x="87.6" y="703.8" transform="matrix(0.8722 -0.4892 0.4892 0.8722 -340.7421 145.8911)" class="st10" width="42.3" height="42.3"/>
					</g>
					<g>
						
							<rect x="103.8" y="646.2" transform="matrix(0.8721 -0.4893 0.4893 0.8721 -310.5315 146.4731)" class="st10" width="42.3" height="42.3"/>
					</g>
					<g>
						
							<rect x="161.4" y="662.4" transform="matrix(0.8721 -0.4893 0.4893 0.8721 -311.0935 176.7115)" class="st10" width="42.3" height="42.3"/>
					</g>
					<g>
						
							<rect x="177.6" y="604.8" transform="matrix(0.8721 -0.4893 0.4893 0.8721 -280.8549 177.2719)" class="st10" width="42.3" height="42.3"/>
					</g>
					<g>
						
							<rect x="235.2" y="621" transform="matrix(0.8721 -0.4893 0.4893 0.8721 -281.4163 207.5094)" class="st10" width="42.3" height="42.3"/>
					</g>
				</g>
				<g>
					<g>
						
							<rect x="71.4" y="761.4" transform="matrix(0.8722 -0.4892 0.4892 0.8722 -370.9883 145.3377)" class="st10" width="42.3" height="42.3"/>
					</g>
					<g>
						
							<rect x="129" y="777.6" transform="matrix(0.8721 -0.4892 0.4892 0.8721 -371.5622 175.584)" class="st10" width="42.3" height="42.3"/>
					</g>
					<g>
						
							<rect x="145.2" y="720" transform="matrix(0.8722 -0.4892 0.4892 0.8722 -341.3141 176.1353)" class="st10" width="42.3" height="42.3"/>
					</g>
					<g>
						
							<rect x="202.8" y="736.2" transform="matrix(0.8721 -0.4892 0.4892 0.8721 -341.8857 206.3815)" class="st10" width="42.3" height="42.3"/>
					</g>
					<g>
						
							<rect x="219" y="678.6" transform="matrix(0.8721 -0.4892 0.4892 0.8721 -311.6478 206.9417)" class="st10" width="42.3" height="42.3"/>
					</g>
					<g>
						
							<rect x="276.5" y="694.8" transform="matrix(0.8721 -0.4892 0.4892 0.8721 -312.2099 237.1798)" class="st10" width="42.3" height="42.3"/>
					</g>
				</g>
			</g>
			<g class="st9">
				<g>
					<g>
						
							<rect x="333.9" y="710.5" transform="matrix(0.8721 -0.4892 0.4892 0.8721 -312.5822 267.2342)" class="st10" width="42.3" height="42.3"/>
					</g>
					<g>
						
							<rect x="391.4" y="726.7" transform="matrix(0.8721 -0.4892 0.4892 0.8721 -313.1436 297.4711)" class="st10" width="42.3" height="42.3"/>
					</g>
					<g>
						
							<rect x="407.6" y="669.2" transform="matrix(0.8721 -0.4892 0.4892 0.8721 -282.9065 298.0325)" class="st10" width="42.3" height="42.3"/>
					</g>
					<g>
						
							<rect x="465.2" y="685.3" transform="matrix(0.8722 -0.4892 0.4892 0.8722 -283.4541 328.2415)" class="st10" width="42.3" height="42.3"/>
					</g>
					<g>
						
							<rect x="481.4" y="627.8" transform="matrix(0.8722 -0.4892 0.4892 0.8722 -253.22 328.805)" class="st10" width="42.3" height="42.3"/>
					</g>
					<g>
						
							<rect x="539" y="644" transform="matrix(0.8721 -0.4892 0.4892 0.8721 -253.7917 359.0663)" class="st10" width="42.3" height="42.3"/>
					</g>
				</g>
				<g>
					<g>
						
							<rect x="375.2" y="784.3" transform="matrix(0.8721 -0.4893 0.4893 0.8721 -343.3857 296.9174)" class="st10" width="42.3" height="42.3"/>
					</g>
					<g>
						
							<rect x="432.8" y="800.5" transform="matrix(0.8721 -0.4893 0.4893 0.8721 -343.9468 327.1551)" class="st10" width="42.3" height="42.3"/>
					</g>
					<g>
						
							<rect x="449" y="742.9" transform="matrix(0.8721 -0.4892 0.4892 0.8721 -313.7012 327.702)" class="st10" width="42.3" height="42.3"/>
					</g>
					<g>
						
							<rect x="506.6" y="759.1" transform="matrix(0.8722 -0.4892 0.4892 0.8722 -314.2543 357.9217)" class="st10" width="42.3" height="42.3"/>
					</g>
					<g>
						
							<rect x="522.8" y="701.5" transform="matrix(0.8722 -0.4892 0.4892 0.8722 -284.0161 358.4765)" class="st10" width="42.3" height="42.3"/>
					</g>
					<g>
						
							<rect x="580.3" y="717.7" transform="matrix(0.8721 -0.4893 0.4893 0.8721 -284.5942 388.7527)" class="st10" width="42.3" height="42.3"/>
					</g>
				</g>
				<g>
					<g>
						
							<rect x="112.6" y="834.7" transform="matrix(0.8721 -0.4892 0.4892 0.8721 -401.6105 174.8407)" class="st10" width="42.3" height="42.3"/>
					</g>
					<g>
						
							<rect x="170.1" y="850.9" transform="matrix(0.8721 -0.4893 0.4893 0.8721 -402.1773 205.0825)" class="st10" width="42.3" height="42.3"/>
					</g>
					<g>
						
							<rect x="186.3" y="793.3" transform="matrix(0.8721 -0.4892 0.4892 0.8721 -371.9347 205.6391)" class="st10" width="42.3" height="42.3"/>
					</g>
					<g>
						
							<rect x="243.9" y="809.5" transform="matrix(0.8721 -0.4892 0.4892 0.8721 -372.49 235.8694)" class="st10" width="42.3" height="42.3"/>
					</g>
					<g>
						
							<rect x="260.1" y="751.9" transform="matrix(0.8721 -0.4892 0.4892 0.8721 -342.2576 236.4358)" class="st10" width="42.3" height="42.3"/>
					</g>
					<g>
						
							<rect x="317.7" y="768.1" transform="matrix(0.8721 -0.4893 0.4893 0.8721 -342.8252 266.681)" class="st10" width="42.3" height="42.3"/>
					</g>
				</g>
				<g>
					<g>
						
							<rect x="153.9" y="908.4" transform="matrix(0.8721 -0.4893 0.4893 0.8721 -432.4134 204.52)" class="st10" width="42.3" height="42.3"/>
					</g>
					<g>
						
							<rect x="211.5" y="924.6" transform="matrix(0.8722 -0.4892 0.4892 0.8722 -432.95 234.7345)" class="st10" width="42.3" height="42.3"/>
					</g>
					<g>
						
							<rect x="227.7" y="867.1" transform="matrix(0.8721 -0.4892 0.4892 0.8721 -402.7266 235.3081)" class="st10" width="42.3" height="42.3"/>
					</g>
					<g>
						
							<rect x="285.3" y="883.2" transform="matrix(0.8721 -0.4893 0.4893 0.8721 -403.3007 265.5588)" class="st10" width="42.3" height="42.3"/>
					</g>
					<g>
						
							<rect x="301.5" y="825.7" transform="matrix(0.8721 -0.4893 0.4893 0.8721 -373.0619 266.1187)" class="st10" width="42.3" height="42.3"/>
					</g>
					<g>
						
							<rect x="359" y="841.9" transform="matrix(0.8721 -0.4893 0.4893 0.8721 -373.623 296.3563)" class="st10" width="42.3" height="42.3"/>
					</g>
				</g>
				<g>
					<g>
						
							<rect x="417.1" y="858.9" transform="matrix(0.8722 -0.4892 0.4892 0.8722 -374.5066 326.894)" class="st10" width="42.3" height="42.3"/>
					</g>
					<g>
						
							<rect x="474.7" y="875.1" transform="matrix(0.8721 -0.4893 0.4893 0.8721 -375.0879 357.161)" class="st10" width="42.3" height="42.3"/>
					</g>
					<g>
						
							<rect x="490.8" y="817.5" transform="matrix(0.8721 -0.4893 0.4893 0.8721 -344.8501 357.7223)" class="st10" width="42.3" height="42.3"/>
					</g>
					<g>
						
							<rect x="548.4" y="833.7" transform="matrix(0.8721 -0.4893 0.4893 0.8721 -345.4114 387.9598)" class="st10" width="42.3" height="42.3"/>
					</g>
					<g>
						
							<rect x="564.6" y="776.1" transform="matrix(0.8721 -0.4893 0.4893 0.8721 -315.1733 388.5193)" class="st10" width="42.3" height="42.3"/>
					</g>
					<g>
						
							<rect x="622.2" y="792.3" transform="matrix(0.8722 -0.4892 0.4892 0.8722 -315.7207 418.7238)" class="st10" width="42.3" height="42.3"/>
					</g>
				</g>
				<g>
					<g>
						
							<rect x="195.8" y="983" transform="matrix(0.8721 -0.4893 0.4893 0.8721 -463.5555 234.5271)" class="st10" width="42.3" height="42.3"/>
					</g>
					<g>
						
							<rect x="253.4" y="999.2" transform="matrix(0.8722 -0.4892 0.4892 0.8722 -464.0954 264.7438)" class="st10" width="42.3" height="42.3"/>
					</g>
					<g>
						
							<rect x="269.6" y="941.6" transform="matrix(0.8721 -0.4893 0.4893 0.8721 -433.8794 265.3259)" class="st10" width="42.3" height="42.3"/>
					</g>
					<g>
						
							<rect x="327.1" y="957.8" transform="matrix(0.8721 -0.4892 0.4892 0.8721 -434.4336 295.5556)" class="st10" width="42.3" height="42.3"/>
					</g>
					<g>
						
							<rect x="343.3" y="900.3" transform="matrix(0.8721 -0.4893 0.4893 0.8721 -404.204 296.1261)" class="st10" width="42.3" height="42.3"/>
					</g>
					<g>
						
							<rect x="400.9" y="916.5" transform="matrix(0.8722 -0.4892 0.4892 0.8722 -404.7419 326.3322)" class="st10" width="42.3" height="42.3"/>
					</g>
				</g>
			</g>
			<use xlink:href="#SVGID_1_"  style="overflow:visible;fill:none;stroke:#231F20;stroke-width:2.1995;stroke-miterlimit:10;"/>
		</g>
		<g>
			<g>
				<path class="st11" d="M273.6,620.3c-38,17.7-47.1-1.7-50.7-7.5l-24.7-39.3c-5.6-8.9,8.2-16.5,16.1-21.4l25.5-16
					c7.9-5,25.7-6.1,31.3,2.8l29.5,45.3C304.2,589.9,311.4,602.7,273.6,620.3z"/>
			</g>
		</g>
		<g>
			<defs>
				<path id="SVGID_7_" d="M283.1,508.9c11.5,41-20.8,53.8-61.8,65.3c-41,11.5-83.5-12.5-95-53.5c-11.5-41,12.5-83.5,53.5-95
					C220.8,414.2,271.7,467.9,283.1,508.9z"/>
			</defs>
			<use xlink:href="#SVGID_7_"  style="overflow:visible;fill:#E98896;"/>
			<clipPath id="SVGID_3_">
				<use xlink:href="#SVGID_7_"  style="overflow:visible;"/>
			</clipPath>
			<g class="st12">
				<g>
					<g>
						<path class="st13" d="M164.8,480c0,0,14.5,23.1,11.3,25.1c-3.2,2-18.1,4.7-19.9,21.3c-1.8,16.6,14.8,21.8,26.6,17.7
							c11.8-4.1,21.6,27.4-6,38.1c-27.7,10.7-72.8-41.9-74-72.2c-1.2-30.2,23.9-80.3,39.2-87.7c15.3-7.4,141.6-15.7,141.6-15.7
							L164.8,480z"/>
					</g>
				</g>
			</g>
		</g>
		<g>
			<path class="st13" d="M959.2,566.4l14.4,43.7l33.5-11L978,510.5c-1.9-5.8-15.7-3.5-16.9,2.5L959.2,566.4z"/>
		</g>
		<g>
			<g>
				<g>
					<path class="st14" d="M353.7,974.2l204.3-120.5L728.9,667l230.3-100.5l14.4,43.7l-183.4,138c0,0-108.9,258.1-222.7,295.9
						C453.8,1081.8,353.7,974.2,353.7,974.2z"/>
				</g>
			</g>
		</g>
	</g>
	<g>
		<circle class="st0" cx="338.1" cy="1487" r="39.5"/>
	</g>
	<g>
		<circle class="st0" cx="504.6" cy="1487" r="39.5"/>
	</g>
	<g>
		<circle class="st0" cx="671.2" cy="1487" r="39.5"/>
	</g>
	<g>
		<circle class="st1" cx="601.8" cy="410.8" r="9.1"/>
	</g>
	<g>
		<circle class="st1" cx="899.6" cy="291.3" r="9.1"/>
	</g>
	<g>
		<circle class="st1" cx="1192.7" cy="408.7" r="9.1"/>
	</g>
</g>
</svg>
